<svg width="113" height="32" viewBox="0 0 113 32" fill="none" xmlns="http://www.w3.org/2000/svg">
<g clip-path="url(#clip0_1_1621)">
<path d="M15.3086 0.217843C14.8083 -0.0726145 14.1917 -0.0726142 13.6914 0.217843L1.30823 7.40632C0.808085 7.69666 0.5 8.23311 0.5 8.81364V23.1863C0.5 23.767 0.808191 24.3035 1.30847 24.5938L5.54333 27.0512C5.97449 27.3014 6.51342 26.9886 6.51342 26.4882V12.3029C6.51342 11.7225 6.82143 11.1861 7.32147 10.8957L13.6914 7.19678C14.1918 6.90626 14.8083 6.90618 15.3087 7.19657L21.6831 10.8958C22.1834 11.1861 22.4915 11.7226 22.4915 12.3032V19.697C22.4915 20.2776 22.1834 20.8141 21.6831 21.1044L15.3088 24.8035C14.8084 25.0939 14.1917 25.0938 13.6914 24.8032L11.1235 23.3115C10.6923 23.061 10.1531 23.3737 10.1531 23.8743V28.7888C10.1531 29.3692 10.461 29.9055 10.9609 30.1959L13.6912 31.7819C14.1917 32.0726 14.8084 32.0727 15.3089 31.7822L27.6918 24.5938C28.1919 24.3035 28.5 23.7671 28.5 23.1865V8.81364C28.5 8.23311 28.1919 7.69666 27.6918 7.40632L15.3086 0.217843Z" fill="#1D3068"/>
<path d="M18.205 18.898C18.6053 18.6658 18.8518 18.2365 18.8518 17.772V14.2232C18.8518 13.7587 18.6053 13.3294 18.205 13.0972L15.147 11.3228C14.7467 11.0905 14.2534 11.0906 13.8531 11.3231L10.7994 13.0971C10.3994 13.3294 10.1531 13.7585 10.1531 14.2227V17.7724C10.1531 18.2367 10.3994 18.6658 10.7994 18.8981L13.8531 20.6721C14.2534 20.9046 14.7467 20.9047 15.147 20.6724L18.205 18.898Z" fill="#1D3068"/>
<path d="M50.541 4.55992H53.7521V22.8844H50.541V4.55992Z" fill="#1D3068"/>
<path d="M68.7607 22.8844H65.5495V21.1283C65.1418 21.7561 64.5981 22.2481 63.9185 22.6045C63.2388 22.9438 62.3893 23.1135 61.3699 23.1135C60.4354 23.1135 59.5689 22.9438 58.7704 22.6045C57.9888 22.2481 57.3092 21.7646 56.7316 21.1538C56.1539 20.526 55.7036 19.7964 55.3808 18.965C55.075 18.1166 54.9221 17.2089 54.9221 16.2418C54.9221 15.2577 55.075 14.3499 55.3808 13.5186C55.7036 12.6702 56.1539 11.9406 56.7316 11.3298C57.3092 10.702 57.9888 10.2185 58.7704 9.87911C59.5689 9.5228 60.4439 9.34465 61.3954 9.34465C62.4148 9.34465 63.2558 9.5228 63.9185 9.87911C64.5981 10.2185 65.1418 10.702 65.5495 11.3298V9.59915H68.7607V22.8844ZM65.5495 15.631C65.4306 14.7487 65.0483 14.0106 64.4027 13.4168C63.7571 12.8059 62.933 12.5005 61.9306 12.5005C61.3699 12.5005 60.8602 12.6023 60.4015 12.8059C59.9427 13.0095 59.552 13.281 59.2291 13.6204C58.9233 13.9597 58.6854 14.3584 58.5155 14.8165C58.3456 15.2747 58.2607 15.7582 58.2607 16.2672C58.2607 16.7593 58.3456 17.2259 58.5155 17.667C58.6854 18.1082 58.9233 18.4984 59.2291 18.8378C59.552 19.1771 59.9427 19.4486 60.4015 19.6522C60.8602 19.8558 61.3699 19.9576 61.9306 19.9576C62.4233 19.9576 62.8821 19.8812 63.3068 19.7285C63.7316 19.5589 64.0969 19.3383 64.4027 19.0668C64.7255 18.7784 64.9804 18.4475 65.1673 18.0742C65.3711 17.684 65.4986 17.2768 65.5495 16.8526V15.631Z" fill="#1D3068"/>
<path d="M75.3786 5.67974V9.59915H78.6917V12.2715H75.3786V18.2778C75.3786 19.0244 75.5485 19.5249 75.8883 19.7794C76.2281 20.0339 76.6953 20.1612 77.29 20.1612C77.5108 20.1612 77.7317 20.1527 77.9526 20.1357C78.1905 20.1018 78.4368 20.0679 78.6917 20.0339V22.9608C77.9101 23.0626 77.188 23.1135 76.5254 23.1135C75.8458 23.1135 75.2341 23.0456 74.6905 22.9099C74.1468 22.7741 73.688 22.5451 73.3142 22.2227C72.9405 21.8834 72.6516 21.4507 72.4477 20.9247C72.2608 20.3818 72.1674 19.72 72.1674 18.9396V12.2715H69.8992V9.59915H72.1674V5.67974H75.3786Z" fill="#1D3068"/>
<path d="M79.6119 5.9088C79.6119 5.38282 79.7988 4.93319 80.1726 4.55992C80.5634 4.18664 81.0306 4 81.5743 4C82.118 4 82.5767 4.18664 82.9505 4.55992C83.3413 4.93319 83.5367 5.38282 83.5367 5.9088C83.5367 6.45175 83.3413 6.90986 82.9505 7.28314C82.5767 7.63945 82.118 7.8176 81.5743 7.8176C81.0306 7.8176 80.5634 7.63945 80.1726 7.28314C79.7988 6.90986 79.6119 6.45175 79.6119 5.9088ZM79.9687 9.59915H83.1799V22.8844H79.9687V9.59915Z" fill="#1D3068"/>
<path d="M112.5 22.8844H109.289V21.1283C108.881 21.7561 108.337 22.2481 107.658 22.6045C106.978 22.9438 106.129 23.1135 105.109 23.1135C104.175 23.1135 103.308 22.9438 102.51 22.6045C101.728 22.2481 101.048 21.7646 100.471 21.1538C99.8931 20.526 99.4429 19.7964 99.12 18.965C98.8142 18.1167 98.6613 17.2089 98.6613 16.2418C98.6613 15.2577 98.8142 14.3499 99.12 13.5186C99.4429 12.6702 99.8931 11.9406 100.471 11.3298C101.048 10.702 101.728 10.2185 102.51 9.87911C103.308 9.5228 104.183 9.34465 105.135 9.34465C106.154 9.34465 106.995 9.5228 107.658 9.87911C108.337 10.2185 108.881 10.702 109.289 11.3298V9.59915H112.5V22.8844ZM109.289 15.631C109.17 14.7487 108.788 14.0106 108.142 13.4168C107.496 12.8059 106.672 12.5005 105.67 12.5005C105.109 12.5005 104.599 12.6023 104.141 12.8059C103.682 13.0095 103.291 13.281 102.968 13.6204C102.663 13.9597 102.425 14.3584 102.255 14.8165C102.085 15.2747 102 15.7582 102 16.2672C102 16.7593 102.085 17.2259 102.255 17.667C102.425 18.1082 102.663 18.4984 102.968 18.8378C103.291 19.1771 103.682 19.4486 104.141 19.6522C104.599 19.8558 105.109 19.9576 105.67 19.9576C106.163 19.9576 106.621 19.8812 107.046 19.7285C107.471 19.5589 107.836 19.3383 108.142 19.0668C108.465 18.7784 108.72 18.4475 108.906 18.0742C109.11 17.684 109.238 17.2768 109.289 16.8526V15.631Z" fill="#1D3068"/>
<path d="M85.1213 9.59915H88.3325V11.7116C88.8252 10.982 89.4538 10.4051 90.2184 9.98091C90.983 9.55674 91.858 9.34465 92.8434 9.34465C93.557 9.34465 94.2026 9.46342 94.7803 9.70096C95.358 9.9385 95.8422 10.2778 96.233 10.719C96.6407 11.1432 96.9466 11.6522 97.1504 12.246C97.3713 12.8399 97.4817 13.4931 97.4817 14.2057V22.8844H94.2706V15.2492C94.2706 14.3669 94.0242 13.6882 93.5315 13.2132C93.0388 12.7381 92.4101 12.5005 91.6456 12.5005C91.1699 12.5005 90.7281 12.6108 90.3203 12.8314C89.9296 13.035 89.5897 13.3065 89.3009 13.6458C89.0121 13.9852 88.7827 14.3839 88.6128 14.842C88.4429 15.2831 88.3495 15.7328 88.3325 16.1909V22.8844H85.1213V9.59915Z" fill="#1D3068"/>
<path d="M35.54 28V9.59915H38.7512V11.3298C39.176 10.702 39.7197 10.2185 40.3823 9.87911C41.0619 9.5228 41.9114 9.34465 42.9308 9.34465C43.8823 9.34465 44.7488 9.5228 45.5303 9.87911C46.3119 10.2185 46.9915 10.702 47.5692 11.3298C48.1469 11.9406 48.5886 12.6702 48.8944 13.5186C49.2172 14.3499 49.3787 15.2577 49.3787 16.2418C49.3787 17.2089 49.2172 18.1167 48.8944 18.965C48.5886 19.7964 48.1469 20.526 47.5692 21.1538C46.9915 21.7646 46.3119 22.2481 45.5303 22.6045C44.7488 22.9438 43.8823 23.1135 42.9308 23.1135C41.9114 23.1135 41.0619 22.9438 40.3823 22.6045C39.7197 22.2481 39.176 21.7561 38.7512 21.1283V28H35.54ZM38.7512 15.631V16.8526C38.8022 17.2768 38.9211 17.684 39.108 18.0742C39.3119 18.4475 39.5667 18.7784 39.8726 19.0668C40.1954 19.3383 40.5692 19.5589 40.9939 19.7285C41.4187 19.8812 41.8774 19.9576 42.3701 19.9576C42.9308 19.9576 43.4405 19.8558 43.8993 19.6522C44.358 19.4486 44.7403 19.1771 45.0461 18.8378C45.3689 18.4984 45.6153 18.1082 45.7852 17.667C45.9551 17.2259 46.0401 16.7593 46.0401 16.2672C46.0401 15.7582 45.9551 15.2747 45.7852 14.8165C45.6153 14.3584 45.3689 13.9597 45.0461 13.6204C44.7403 13.281 44.358 13.0095 43.8993 12.8059C43.4405 12.6023 42.9308 12.5005 42.3701 12.5005C41.3677 12.5005 40.5437 12.8059 39.8981 13.4168C39.2524 14.0106 38.8701 14.7487 38.7512 15.631Z" fill="#1D3068"/>
</g>
<defs>
<clipPath id="clip0_1_1621">
<rect x="0.5" width="112" height="32" fill="white"/>
</clipPath>
</defs>
</svg>
