<svg width="20" height="20" viewBox="0 0 20 20" fill="none" xmlns="http://www.w3.org/2000/svg">
<g clip-path="url(#clip0_1_1199)">
<mask id="mask0_1_1199" style="mask-type:alpha" maskUnits="userSpaceOnUse" x="0" y="-1" width="20" height="21">
<circle cx="10" cy="9.99988" r="10" fill="#D9D9D9"/>
</mask>
<g mask="url(#mask0_1_1199)">
<g clip-path="url(#clip1_1_1199)">
<path d="M25.0027 -0.00012207V19.9999H-4.99902V-0.00012207H25.0027Z" fill="#0437A0"/>
<path d="M9.99814 1.70035L10.2663 2.50119L11.113 2.50825L10.4321 3.00922L10.6861 3.8136L9.99814 3.31968L9.31019 3.8136L9.5642 3.00922L8.88331 2.50825L9.73001 2.50119L9.99814 1.70035ZM6.39257 15.223L6.66069 16.0239L7.5074 16.0309L6.8265 16.5319L7.08052 17.3398L6.39257 16.8459L5.70461 17.3398L5.96215 16.5319L5.28126 16.0309L6.12797 16.0239L6.39609 15.223H6.39257ZM3.73954 12.5735L4.00767 13.3744L4.85438 13.3814L4.17348 13.8824L4.42749 14.6903L3.73954 14.1964L3.05159 14.6903L3.3056 13.8824L2.62471 13.3814L3.47142 13.3744L3.73954 12.5735ZM2.75877 8.94678L3.02689 9.75115L3.8736 9.75821L3.19271 10.2592L3.45025 11.0636L2.7623 10.5696L2.07434 11.0636L2.32836 10.2592L1.64746 9.75821L2.49417 9.75115L2.7623 8.94678H2.75877ZM3.73954 5.32356L4.00767 6.12441L4.85438 6.13146L4.17348 6.63243L4.42749 7.44034L3.73954 6.94995L3.05159 7.44034L3.3056 6.63243L2.62471 6.13146L3.47142 6.12441L3.73954 5.32356ZM6.38904 2.67054L6.65716 3.47138L7.50387 3.47844L6.82298 3.97941L7.07699 4.78731L6.38904 4.2934L5.70109 4.78731L5.9551 3.97941L5.2742 3.47844L6.12091 3.47138L6.38904 2.67054ZM13.6249 2.67406L13.893 3.47491L14.7397 3.48197L14.0588 3.98294L14.3128 4.79084L13.6249 4.29693L12.9369 4.79084L13.1909 3.98294L12.51 3.48197L13.3568 3.47491L13.6249 2.67406ZM16.2673 5.31651L16.5354 6.11735L17.3822 6.12441L16.7013 6.62538L16.9553 7.43328L16.2673 6.93937L15.5794 7.43328L15.8369 6.62538L15.156 6.12441L16.0027 6.11735L16.2709 5.31651H16.2673ZM17.2375 8.93972L17.5056 9.74057L18.3523 9.74762L17.6714 10.2486L17.929 11.0565L17.241 10.5626L16.5531 11.0565L16.8071 10.2486L16.1262 9.74762L16.9729 9.74057L17.241 8.93972H17.2375ZM16.2744 12.5524L16.5425 13.3532L17.3892 13.3603L16.7083 13.8612L16.9623 14.6656L16.2744 14.1717L15.5864 14.6656L15.8404 13.8612L15.1595 13.3603L16.0063 13.3532L16.2744 12.5524ZM13.6249 15.2054L13.893 16.0062L14.7397 16.0133L14.0588 16.5142L14.3128 17.3222L13.6249 16.8282L12.9369 17.3222L13.1909 16.5142L12.51 16.0133L13.3568 16.0062L13.6249 15.2054ZM9.99814 16.1826L10.2663 16.9835L11.113 16.9905L10.4321 17.4915L10.6861 18.2994L9.99814 17.8055L9.31019 18.2994L9.5642 17.4915L8.88331 16.9905L9.73001 16.9835L9.99814 16.1826Z" fill="#FEDC36"/>
</g>
</g>
</g>
<defs>
<clipPath id="clip0_1_1199">
<rect width="20" height="20" fill="white"/>
</clipPath>
<clipPath id="clip1_1_1199">
<rect width="20" height="20" fill="white"/>
</clipPath>
</defs>
</svg>
