<svg width="35" height="35" viewBox="0 0 35 35" fill="none" xmlns="http://www.w3.org/2000/svg">
<path d="M14.5873 17.5454C14.5873 15.9332 15.8935 14.6259 17.5053 14.6259C19.117 14.6259 20.4239 15.9332 20.4239 17.5454C20.4239 19.1576 19.117 20.4649 17.5053 20.4649C15.8935 20.4649 14.5873 19.1576 14.5873 17.5454ZM13.0095 17.5454C13.0095 20.0291 15.0223 22.0424 17.5053 22.0424C19.9883 22.0424 22.001 20.0291 22.001 17.5454C22.001 15.0617 19.9883 13.0484 17.5053 13.0484C15.0223 13.0484 13.0095 15.0617 13.0095 17.5454ZM21.1283 12.8701C21.1283 13.0779 21.1898 13.2811 21.3052 13.454C21.4205 13.6269 21.5846 13.7616 21.7765 13.8413C21.9685 13.9209 22.1797 13.9418 22.3835 13.9013C22.5873 13.8608 22.7746 13.7608 22.9216 13.6139C23.0686 13.467 23.1687 13.2798 23.2093 13.0759C23.25 12.8721 23.2292 12.6608 23.1498 12.4687C23.0703 12.2766 22.9358 12.1124 22.763 11.9969C22.5903 11.8813 22.3872 11.8196 22.1794 11.8195H22.179C21.9004 11.8197 21.6333 11.9304 21.4364 12.1274C21.2394 12.3243 21.1286 12.5915 21.1283 12.8701ZM13.9681 24.674C13.1145 24.6351 12.6506 24.4929 12.3423 24.3728C11.9335 24.2136 11.6418 24.024 11.3352 23.7177C11.0285 23.4114 10.8387 23.1199 10.6803 22.711C10.5601 22.4028 10.4179 21.9385 10.3791 21.0847C10.3367 20.1615 10.3282 19.8842 10.3282 17.5455C10.3282 15.2067 10.3374 14.9302 10.3791 14.0063C10.418 13.1524 10.5612 12.6891 10.6803 12.3799C10.8394 11.971 11.029 11.6793 11.3352 11.3725C11.6414 11.0658 11.9328 10.8759 12.3423 10.7175C12.6504 10.5972 13.1145 10.455 13.9681 10.4162C14.891 10.3737 15.1682 10.3653 17.5053 10.3653C19.8423 10.3653 20.1198 10.3744 21.0434 10.4162C21.8971 10.4551 22.3602 10.5984 22.6693 10.7175C23.0781 10.8759 23.3698 11.0662 23.6764 11.3725C23.983 11.6789 24.1722 11.971 24.3313 12.3799C24.4515 12.6882 24.5937 13.1524 24.6325 14.0063C24.6749 14.9302 24.6834 15.2067 24.6834 17.5455C24.6834 19.8842 24.6749 20.1608 24.6325 21.0847C24.5936 21.9385 24.4507 22.4026 24.3313 22.711C24.1722 23.1199 23.9826 23.4116 23.6764 23.7177C23.3702 24.0237 23.0781 24.2136 22.6693 24.3728C22.3612 24.493 21.8971 24.6352 21.0434 24.674C20.1206 24.7165 19.8433 24.725 17.5053 24.725C15.1672 24.725 14.8907 24.7165 13.9681 24.674ZM13.8956 8.84063C12.9636 8.88309 12.3267 9.03092 11.7705 9.24742C11.1945 9.47099 10.7068 9.77092 10.2196 10.2576C9.73227 10.7442 9.43319 11.2328 9.20969 11.809C8.99326 12.3657 8.84547 13.0024 8.80302 13.9347C8.75988 14.8685 8.75 15.1671 8.75 17.5454C8.75 19.9237 8.75988 20.2223 8.80302 21.1561C8.84547 22.0885 8.99326 22.7251 9.20969 23.2818C9.43319 23.8577 9.73234 24.3468 10.2196 24.8332C10.7068 25.3197 11.1945 25.6192 11.7705 25.8434C12.3278 26.0599 12.9636 26.2077 13.8956 26.2502C14.8297 26.2926 15.1276 26.3032 17.5053 26.3032C19.8829 26.3032 20.1814 26.2933 21.1149 26.2502C22.047 26.2077 22.6835 26.0599 23.24 25.8434C23.8157 25.6192 24.3037 25.3199 24.791 24.8332C25.2783 24.3466 25.5767 23.8577 25.8009 23.2818C26.0173 22.7251 26.1658 22.0884 26.2075 21.1561C26.25 20.2216 26.2598 19.9237 26.2598 17.5454C26.2598 15.1671 26.25 14.8685 26.2075 13.9347C26.1651 13.0023 26.0173 12.3653 25.8009 11.809C25.5767 11.2331 25.2775 10.745 24.791 10.2576C24.3045 9.77015 23.8157 9.47099 23.2407 9.24742C22.6835 9.03092 22.0469 8.88239 21.1156 8.84063C20.1821 8.79818 19.8836 8.7876 17.506 8.7876C15.1283 8.7876 14.8297 8.79748 13.8956 8.84063Z" fill="#1D3068"/>
</svg>
