<svg width="40" height="40" viewBox="0 0 40 40" fill="none" xmlns="http://www.w3.org/2000/svg">
<path d="M20.0003 28.3332C24.6027 28.3332 28.3337 24.6022 28.3337 19.9999C28.3337 15.3975 24.6027 11.6665 20.0003 11.6665C15.398 11.6665 11.667 15.3975 11.667 19.9999C11.667 24.6022 15.398 28.3332 20.0003 28.3332Z" fill="url(#paint0_linear_15_1096)"/>
<path d="M27.8318 4.3382L25.8735 9.06654C25.2351 10.6065 22.9251 9.64987 23.5635 8.10987L25.5218 3.38154C26.1601 1.84154 28.4701 2.7982 27.8318 4.3382ZM16.4218 31.8832L14.4635 36.6115C13.8252 38.1515 11.5151 37.1949 12.1535 35.6549L14.1118 30.9265C14.7501 29.3865 17.0601 30.3432 16.4218 31.8832ZM36.6085 14.4682L31.8801 16.4265C30.3401 17.0649 29.3835 14.7549 30.9235 14.1165L35.6518 12.1582C37.1918 11.5199 38.1485 13.8299 36.6085 14.4682ZM9.06348 25.8782L4.33515 27.8365C2.79515 28.4749 1.83848 26.1649 3.37848 25.5265L8.10682 23.5682C9.64682 22.9299 10.6035 25.2399 9.06348 25.8782ZM35.6518 27.8382L30.9235 25.8799C29.3835 25.2415 30.3401 22.9315 31.8801 23.5699L36.6085 25.5282C38.1485 26.1665 37.1918 28.4765 35.6518 27.8382ZM8.10682 16.4282L3.37848 14.4699C1.83848 13.8315 2.79515 11.5215 4.33515 12.1599L9.06348 14.1182C10.6035 14.7565 9.64682 17.0665 8.10682 16.4282ZM14.4618 3.37987L16.4201 8.1082C17.0585 9.6482 14.7485 10.6049 14.1101 9.06487L12.1518 4.33654C11.5135 2.79654 13.8235 1.83987 14.4618 3.37987ZM25.8718 30.9249L27.8301 35.6532C28.4685 37.1932 26.1585 38.1499 25.5201 36.6099L23.5618 31.8815C22.9235 30.3415 25.2335 29.3849 25.8718 30.9249Z" fill="#FFB300"/>
<defs>
<linearGradient id="paint0_linear_15_1096" x1="20.0003" y1="11.6665" x2="20.0003" y2="28.111" gradientUnits="userSpaceOnUse">
<stop stop-color="#FFC227"/>
<stop offset="1" stop-color="#FFB300"/>
</linearGradient>
</defs>
</svg>
