<svg width="35" height="35" viewBox="0 0 35 35" fill="none" xmlns="http://www.w3.org/2000/svg">
<path d="M9.73707 16.8806C9.73707 16.8806 16.8577 13.8815 19.3273 12.8254C20.274 12.403 23.4844 11.0513 23.4844 11.0513C23.4844 11.0513 24.9662 10.4599 24.8427 11.8961C24.8015 12.4875 24.4723 14.5573 24.143 16.7961C23.6491 19.9642 23.114 23.428 23.114 23.428C23.114 23.428 23.0317 24.3995 22.332 24.5685C21.6323 24.7375 20.4798 23.9772 20.274 23.8081C20.1093 23.6815 17.187 21.7806 16.1168 20.8512C15.8287 20.5978 15.4994 20.091 16.158 19.4995C17.6397 18.1056 19.4096 16.3737 20.4798 15.2754C20.9737 14.7685 21.4676 13.5858 19.4096 15.0219C16.4873 17.0918 13.6061 19.0349 13.6061 19.0349C13.6061 19.0349 12.9475 19.4573 11.7127 19.0771C10.4779 18.697 9.0373 18.1901 9.0373 18.1901C9.0373 18.1901 8.04953 17.5564 9.73707 16.8806Z" fill="#737C98"/>
</svg>
