<svg width="35" height="35" viewBox="0 0 35 35" fill="none" xmlns="http://www.w3.org/2000/svg">
<path d="M23.2727 12.7522C23.1566 12.6922 23.0436 12.6264 22.934 12.5551C22.6155 12.3446 22.3235 12.0965 22.0643 11.8162C21.4157 11.074 21.1734 10.3211 21.0842 9.79391H21.0877C21.0132 9.35635 21.044 9.07324 21.0487 9.07324H18.0943V20.4972C18.0943 20.6506 18.0943 20.8022 18.0879 20.952C18.0879 20.9706 18.0861 20.9878 18.085 21.0079C18.085 21.0161 18.085 21.0247 18.0832 21.0333C18.0832 21.0354 18.0832 21.0376 18.0832 21.0398C18.0521 21.4496 17.9207 21.8456 17.7006 22.1928C17.4805 22.54 17.1785 22.8278 16.8211 23.0308C16.4486 23.2427 16.0273 23.3539 15.5987 23.3534C14.2222 23.3534 13.1066 22.231 13.1066 20.8448C13.1066 19.4586 14.2222 18.3362 15.5987 18.3362C15.8593 18.336 16.1182 18.377 16.3659 18.4577L16.3695 15.4496C15.6175 15.3525 14.8534 15.4122 14.1256 15.6252C13.3978 15.8381 12.722 16.1995 12.1408 16.6867C11.6316 17.1291 11.2035 17.657 10.8758 18.2467C10.7511 18.4617 10.2806 19.3257 10.2236 20.728C10.1878 21.5239 10.4268 22.3485 10.5407 22.6893V22.6965C10.6124 22.8972 10.8902 23.582 11.3428 24.1593C11.7077 24.6224 12.1389 25.0292 12.6225 25.3666V25.3595L12.6296 25.3666C14.0599 26.3385 15.6456 26.2747 15.6456 26.2747C15.9201 26.2636 16.8397 26.2747 17.884 25.7798C19.0422 25.2312 19.7016 24.4138 19.7016 24.4138C20.1229 23.9253 20.4578 23.3687 20.6921 22.7678C20.9595 22.065 21.0487 21.2222 21.0487 20.8853V14.8246C21.0845 14.8461 21.5619 15.1619 21.5619 15.1619C21.5619 15.1619 22.2496 15.6026 23.3225 15.8897C24.0923 16.094 25.1294 16.137 25.1294 16.137V13.2041C24.766 13.2435 24.0281 13.1289 23.2727 12.7522Z" fill="#737C98"/>
</svg>
