<svg width="35" height="35" viewBox="0 0 35 35" fill="none" xmlns="http://www.w3.org/2000/svg">
<path d="M26.1869 11.9592C25.6089 12.2081 25.0014 12.3814 24.3792 12.4749C24.6701 12.425 25.0981 11.9009 25.2685 11.6888C25.5273 11.3689 25.7246 11.0036 25.8503 10.6116C25.8503 10.5825 25.8793 10.5409 25.8503 10.5201C25.8356 10.5121 25.8192 10.5079 25.8025 10.5079C25.7858 10.5079 25.7693 10.5121 25.7547 10.5201C25.0791 10.8863 24.3601 11.1658 23.6146 11.3519C23.5886 11.3599 23.561 11.3606 23.5346 11.354C23.5083 11.3474 23.4842 11.3337 23.465 11.3145C23.407 11.2453 23.3445 11.18 23.278 11.119C22.974 10.8464 22.629 10.6232 22.2558 10.4577C21.7519 10.2508 21.2077 10.1612 20.6642 10.1957C20.1368 10.229 19.622 10.3706 19.1516 10.6116C18.6884 10.8657 18.2813 11.2109 17.9548 11.6264C17.6114 12.0541 17.3634 12.5505 17.2276 13.0821C17.1157 13.5878 17.1029 14.1105 17.1902 14.621C17.1902 14.7084 17.1902 14.7209 17.1154 14.7084C14.1526 14.2717 11.7216 13.2194 9.73528 10.961C9.64801 10.8611 9.6023 10.8611 9.53166 10.961C8.66732 12.2753 9.08702 14.3549 10.1674 15.3822C10.3129 15.5194 10.4625 15.6525 10.6204 15.7773C10.125 15.7421 9.64176 15.6077 9.19922 15.3822C9.11611 15.3281 9.0704 15.3572 9.06624 15.457C9.05446 15.5954 9.05446 15.7346 9.06624 15.873C9.15295 16.5362 9.41409 17.1645 9.82296 17.6935C10.2318 18.2226 10.7738 18.6335 11.3933 18.8842C11.5444 18.949 11.7017 18.9977 11.8629 19.0298C11.4043 19.1201 10.934 19.1342 10.4708 19.0714C10.3711 19.0506 10.3337 19.1046 10.3711 19.2003C10.9819 20.864 12.3075 21.3714 13.2799 21.6542C13.4129 21.675 13.5459 21.675 13.6955 21.7083C13.6955 21.7083 13.6955 21.7083 13.6705 21.7332C13.3838 22.2573 12.2244 22.6108 11.6925 22.7938C10.7217 23.1429 9.68654 23.2763 8.65901 23.1848C8.49694 23.1598 8.45954 23.164 8.41799 23.1848C8.37643 23.2056 8.41799 23.2513 8.4637 23.2929C8.67147 23.4302 8.87925 23.5508 9.09533 23.6673C9.73862 24.0184 10.4187 24.2974 11.1232 24.4991C14.7717 25.5056 18.8774 24.7653 21.6158 22.041C23.7684 19.9032 24.5247 16.9543 24.5247 14.0013C24.5247 13.889 24.6618 13.8225 24.7407 13.7643C25.2853 13.3396 25.7654 12.838 26.1661 12.2753C26.2355 12.1914 26.271 12.0846 26.2658 11.9758C26.2658 11.9134 26.2658 11.9259 26.1869 11.9592Z" fill="#737C98"/>
</svg>
