<svg width="20" height="20" viewBox="0 0 20 20" fill="none" xmlns="http://www.w3.org/2000/svg">
<g clip-path="url(#clip0_15_272)">
<mask id="mask0_15_272" style="mask-type:alpha" maskUnits="userSpaceOnUse" x="0" y="0" width="20" height="20">
<circle cx="10" cy="10" r="10" fill="#D9D9D9"/>
</mask>
<g mask="url(#mask0_15_272)">
<g clip-path="url(#clip1_15_272)">
<path d="M24.9992 1.53819V3.07638H10.1994V1.53819H24.9992ZM24.9992 4.61457V6.15276H10.1994V4.61457H24.9992ZM24.9992 7.69095V9.22914H10.1994V7.69095H24.9992ZM24.9992 10.7673V12.3055H-4.99902V10.7673H24.9992ZM24.9992 13.8437V15.3819H-4.99902V13.8437H24.9992ZM24.9992 16.9201V18.4583H-4.99902V16.9201H24.9992Z" fill="#F4F4F5"/>
<path d="M-4.99902 0L24.9992 0V1.53819H-4.99902V0ZM-4.99902 18.4618H24.9992V20H-4.99902V18.4618ZM-4.99902 15.3854H24.9992V16.9236H-4.99902V15.3854ZM-4.99902 12.309H24.9992V13.8472H-4.99902V12.309ZM-4.99902 9.23267H24.9992V10.7709H-4.99902V9.23267ZM-4.99902 6.15629H24.9992V7.69448H-4.99902V6.15629ZM-4.99902 3.07991H24.9992V4.6181H-4.99902V3.07991Z" fill="#F90805"/>
<path d="M-4.99902 0L10.1994 0V10.7673H-4.99902V0Z" fill="#0437A0"/>
<path d="M8.93277 0.532718L9.07036 0.959601H9.51841L9.15503 1.22067L9.29262 1.64755L8.92924 1.38296L8.56586 1.64755L8.70698 1.22067L8.3436 0.959601H8.79165L8.92924 0.532718H8.93277ZM-3.73261 4.82624L-3.59502 5.25313H-3.14697L-3.51035 5.5142L-3.37276 5.94108L-3.73614 5.67648L-4.09952 5.94108L-3.9584 5.5142L-4.32178 5.25313H-3.87373L-3.73614 4.82624H-3.73261ZM-2.46607 5.89874L-2.32848 6.32563H-1.88043L-2.24381 6.5867L-2.10622 7.01358L-2.46607 6.74898L-2.82945 7.01358L-2.69186 6.5867L-3.05524 6.32563H-2.60719L-2.4696 5.89874H-2.46607ZM7.66623 5.89874L7.80382 6.32563H8.25187L7.88849 6.5867L8.02608 7.01358L7.6627 6.74898L7.29932 7.01358L7.43691 6.5867L7.07353 6.32563H7.52158L7.65917 5.89874H7.66623ZM5.13315 5.89874L5.27074 6.32563H5.71879L5.35542 6.5867L5.49301 7.01358L5.12963 6.74898L4.76625 7.01358L4.90736 6.5867L4.54398 6.32563H4.99203L5.12963 5.89874H5.13315ZM2.60008 5.89874L2.73767 6.32563H3.18572L2.82234 6.5867L2.95993 7.01358L2.59655 6.74898L2.23317 7.01358L2.37429 6.5867L2.01091 6.32563H2.45896L2.59655 5.89874H2.60008ZM0.0670037 5.90227L0.204595 6.32916H0.652646L0.289265 6.59022L0.426856 7.01711L0.0634761 6.75251L-0.299904 7.01711L-0.162313 6.59022L-0.525693 6.32916H-0.0705862L0.0670037 5.90227ZM-1.19953 4.82977L-1.06194 5.25666H-0.613892L-0.977272 5.51772L-0.839682 5.94461L-1.19953 5.68001L-1.56291 5.94461L-1.4218 5.51772L-1.78517 5.25666H-1.33712L-1.19953 4.82977ZM6.39969 4.82977L6.53728 5.25666H6.98533L6.62195 5.51772L6.75954 5.94461L6.39969 5.68001L6.03631 5.94461L6.17743 5.51772L5.81405 5.25666H6.2621L6.39969 4.82977ZM8.93277 4.82977L9.07036 5.25666H9.51841L9.15503 5.51772L9.29262 5.94461L8.92924 5.68001L8.56586 5.94461L8.70698 5.51772L8.3436 5.25666H8.79165L8.92924 4.82977H8.93277ZM8.93277 6.9783L9.07036 7.40518H9.51841L9.15503 7.66625L9.29262 8.09314L8.92924 7.82854L8.56586 8.09314L8.70698 7.66625L8.3436 7.40518H8.79165L8.92924 6.98183L8.93277 6.9783ZM6.39969 6.9783L6.53728 7.40518H6.98533L6.62195 7.66625L6.75954 8.09314L6.39969 7.82854L6.03631 8.09314L6.17743 7.66625L5.81405 7.40518H6.2621L6.39969 6.98183V6.9783ZM-1.19953 6.9783L-1.06194 7.40518H-0.613892L-0.977272 7.66625L-0.839682 8.09314L-1.19953 7.82854L-1.56291 8.09314L-1.4218 7.66625L-1.78517 7.40518H-1.33712L-1.19953 6.98183V6.9783ZM-2.46607 8.0508L-2.32848 8.47768H-1.88043L-2.24381 8.73875L-2.10622 9.16564L-2.46607 8.90104L-2.82945 9.16564L-2.69186 8.73875L-3.05524 8.47768H-2.60719L-2.4696 8.0508H-2.46607ZM7.66623 8.0508L7.80382 8.47768H8.25187L7.88849 8.73875L8.02608 9.16564L7.6627 8.90104L7.29932 9.16564L7.43691 8.73875L7.07353 8.47768H7.52158L7.65917 8.0508H7.66623ZM5.13315 8.0508L5.27074 8.47768H5.71879L5.35542 8.73875L5.49301 9.16564L5.12963 8.90104L4.76625 9.16564L4.90736 8.73875L4.54398 8.47768H4.99203L5.12963 8.0508H5.13315ZM2.60008 8.0508L2.73767 8.47768H3.18572L2.82234 8.73875L2.95993 9.16564L2.59655 8.90104L2.23317 9.16564L2.37429 8.73875L2.01091 8.47768H2.45896L2.59655 8.0508H2.60008ZM0.0670037 8.04727L0.204595 8.47416H0.652646L0.289265 8.73522L0.426856 9.16211L0.0634761 8.89751L-0.299904 9.16211L-0.162313 8.73522L-0.525693 8.47416H-0.0705862L0.0670037 8.04727ZM-3.73261 6.97477L-3.59502 7.40166H-3.14697L-3.51035 7.66272L-3.37276 8.08961L-3.73614 7.82501L-4.09952 8.08961L-3.9584 7.66272L-4.32178 7.40166H-3.87373L-3.73614 6.9783L-3.73261 6.97477ZM-3.73261 9.11977L-3.59502 9.54665H-3.14697L-3.51035 9.80772L-3.37276 10.2346L-3.73614 9.97001L-4.09952 10.2346L-3.9584 9.80772L-4.32178 9.54313H-3.87373L-3.73614 9.11624L-3.73261 9.11977ZM-1.19953 9.11977L-1.06194 9.54665H-0.613892L-0.977272 9.80772L-0.839682 10.2346L-1.19953 9.97001L-1.56291 10.2346L-1.4218 9.80772L-1.78517 9.54313H-1.33712L-1.19953 9.11624V9.11977ZM6.39969 9.11977L6.53728 9.54665H6.98533L6.62195 9.80772L6.75954 10.2346L6.39969 9.97001L6.03631 10.2346L6.17743 9.80772L5.81405 9.54313H6.2621L6.39969 9.11624V9.11977ZM8.93277 9.11977L9.07036 9.54665H9.51841L9.15503 9.80772L9.29262 10.2346L8.92924 9.97001L8.56586 10.2346L8.70698 9.80772L8.3436 9.54313H8.79165L8.92924 9.11624L8.93277 9.11977ZM-2.46607 3.75375L-2.32848 4.18063H-1.88043L-2.24381 4.4417L-2.10622 4.86858L-2.46607 4.60398L-2.82945 4.86858L-2.69186 4.4417L-3.05524 4.18063H-2.60719L-2.4696 3.75375H-2.46607ZM-2.46607 1.60875L-2.32848 2.03563H-1.88043L-2.24381 2.2967L-2.10622 2.72005L-2.46607 2.45546L-2.82945 2.72005L-2.69186 2.2967L-3.05524 2.0321H-2.60719L-2.4696 1.60875H-2.46607ZM7.66623 1.60875L7.80382 2.03563H8.25187L7.88849 2.2967L8.02608 2.72005L7.6627 2.45546L7.29932 2.72005L7.43691 2.2967L7.07353 2.0321H7.52158L7.65917 1.60875H7.66623ZM5.13315 1.60875L5.27074 2.03563H5.71879L5.35542 2.2967L5.49301 2.72005L5.12963 2.45546L4.76625 2.72005L4.90736 2.2967L4.54398 2.0321H4.99203L5.12963 1.60875H5.13315ZM2.60008 1.60875L2.73767 2.03563H3.18572L2.82234 2.2967L2.95993 2.72005L2.59655 2.45546L2.23317 2.72005L2.37429 2.2967L2.01091 2.0321H2.45896L2.59655 1.60875H2.60008ZM0.0670037 1.60522L0.204595 2.0321H0.652646L0.289265 2.29317L0.426856 2.71652L0.0670037 2.45546L-0.296376 2.72005L-0.158785 2.2967L-0.522165 2.0321H-0.0705862L0.0670037 1.60875V1.60522ZM-3.73261 2.67772L-3.59502 3.1046H-3.14697L-3.51035 3.36567L-3.37276 3.79255L-3.73614 3.52796L-4.09952 3.79255L-3.9584 3.36567L-4.32178 3.1046H-3.87373L-3.73614 2.67772H-3.73261ZM7.66976 3.75022L7.80735 4.1771H8.2554L7.89202 4.43817L8.02961 4.86505L7.66623 4.60046L7.30285 4.86505L7.44044 4.43817L7.07706 4.1771H7.52511L7.6627 3.75022H7.66976ZM5.13668 3.75022L5.27427 4.1771H5.72232L5.35894 4.43817L5.49653 4.86505L5.13315 4.60046L4.76977 4.86505L4.91089 4.43817L4.54751 4.1771H4.99556L5.13315 3.75022H5.13668ZM2.60361 3.75022L2.7412 4.1771H3.18925L2.82587 4.43817L2.96346 4.86505L2.60008 4.60046L2.2367 4.86505L2.37782 4.43817L2.01444 4.1771H2.46249L2.60008 3.75022H2.60361ZM0.0670037 3.75375L0.204595 4.18063H0.652646L0.289265 4.4417L0.426856 4.86858L0.0634761 4.60398L-0.299904 4.86858L-0.162313 4.4417L-0.525693 4.18063H-0.0705862L0.0670037 3.75375ZM-1.19953 2.68125L-1.06194 3.10813H-0.613892L-0.977272 3.3692L-0.839682 3.79608L-1.19953 3.53148L-1.56291 3.79608L-1.4218 3.3692L-1.78517 3.10813H-1.33712L-1.19953 2.68125ZM-1.19953 0.532718L-1.06194 0.959601H-0.613892L-0.977272 1.22067L-0.839682 1.64755L-1.19953 1.38296L-1.56291 1.64755L-1.4218 1.22067L-1.78517 0.959601H-1.33712L-1.19953 0.532718ZM-3.73261 0.532718L-3.59502 0.959601H-3.14697L-3.51035 1.22067L-3.37276 1.64755L-3.73614 1.38296L-4.09952 1.64755L-3.9584 1.22067L-4.32178 0.959601H-3.87373L-3.73614 0.532718H-3.73261ZM1.33354 9.11977L1.47113 9.54665H1.91918L1.5558 9.80772L1.69339 10.2346L1.33001 9.97001L0.966633 10.2346L1.10422 9.80772L0.740844 9.54313H1.1889L1.32649 9.11624L1.33354 9.11977ZM1.33354 6.97477L1.47113 7.40166H1.91918L1.5558 7.66272L1.69339 8.08961L1.33001 7.82501L0.966633 8.08961L1.10422 7.66272L0.740844 7.40166H1.1889L1.32649 6.9783L1.33354 6.97477ZM1.33354 4.82624L1.47113 5.25313H1.91918L1.5558 5.5142L1.69339 5.94108L1.33001 5.67648L0.966633 5.94108L1.10422 5.5142L0.740844 5.25313H1.1889L1.32649 4.82624H1.33354ZM1.33354 2.67772L1.47113 3.1046H1.91918L1.5558 3.36567L1.69339 3.79255L1.33001 3.52796L0.966633 3.79255L1.10422 3.36567L0.740844 3.1046H1.1889L1.32649 2.67772H1.33354ZM1.33354 0.532718L1.47113 0.959601H1.91918L1.5558 1.22067L1.69339 1.64755L1.33001 1.38296L0.966633 1.64755L1.10422 1.22067L0.740844 0.959601H1.1889L1.32649 0.532718H1.33354ZM3.86662 9.11977L4.00421 9.54665H4.45226L4.08888 9.80772L4.23 10.2346L3.86662 9.97001L3.50676 10.2346L3.64435 9.80772L3.28097 9.54313H3.72903L3.86662 9.11624V9.11977ZM3.86662 6.97477L4.00421 7.40166H4.45226L4.08888 7.66272L4.23 8.08961L3.86662 7.82501L3.50676 8.08961L3.64435 7.66272L3.28097 7.40166H3.72903L3.86662 6.9783V6.97477ZM3.86662 4.82624L4.00421 5.25313H4.45226L4.08888 5.5142L4.23 5.94108L3.86662 5.67648L3.50676 5.94108L3.64435 5.5142L3.28097 5.25313H3.72903L3.86662 4.82624ZM3.86662 2.67772L4.00421 3.1046H4.45226L4.08888 3.36567L4.23 3.79255L3.86662 3.52796L3.50676 3.79255L3.64435 3.36567L3.28097 3.1046H3.72903L3.86662 2.67772ZM3.86662 0.52919L4.00421 0.956073H4.45226L4.08888 1.21714L4.23 1.64403L3.86662 1.37943L3.50676 1.64403L3.64435 1.21714L3.28097 0.956073H3.72903L3.86662 0.52919ZM6.39969 2.67772L6.53728 3.1046H6.98533L6.62195 3.36567L6.75954 3.79255L6.39969 3.52796L6.03631 3.79255L6.17743 3.36567L5.81405 3.1046H6.2621L6.39969 2.67772ZM6.39969 0.52919L6.53728 0.956073H6.98533L6.62195 1.21714L6.75954 1.64403L6.39969 1.37943L6.03631 1.64403L6.17743 1.21714L5.81405 0.956073H6.2621L6.39969 0.52919ZM8.93277 2.67772L9.07036 3.1046H9.51841L9.15503 3.36567L9.29262 3.79255L8.92924 3.52796L8.56586 3.79255L8.70698 3.36567L8.3436 3.1046H8.79165L8.92924 2.67772H8.93277Z" fill="#F4F4F5"/>
</g>
</g>
</g>
<defs>
<clipPath id="clip0_15_272">
<rect width="20" height="20" fill="white"/>
</clipPath>
<clipPath id="clip1_15_272">
<rect width="20" height="20" fill="white"/>
</clipPath>
</defs>
</svg>
