<svg width="25" height="26" viewBox="0 0 25 26" fill="none" xmlns="http://www.w3.org/2000/svg">
<g clip-path="url(#clip0_15_867)">
<path d="M16.6667 13C18.9679 13 20.8333 11.1345 20.8333 8.83334C20.8333 6.53215 18.9679 4.66667 16.6667 4.66667C14.3655 4.66667 12.5 6.53215 12.5 8.83334C12.5 11.1345 14.3655 13 16.6667 13Z" fill="url(#paint0_linear_15_867)"/>
<path d="M16.1254 1.26042L16.3962 2.79896C16.5774 3.825 15.0379 4.09584 14.8576 3.06979L14.5868 1.53125C14.4056 0.505211 15.9451 0.234378 16.1254 1.26042ZM21.6389 3.09479L20.7431 4.375C20.1451 5.22813 18.866 4.33229 19.4629 3.47917L20.3587 2.19896C20.9566 1.34584 22.2358 2.24167 21.6389 3.09479ZM10.9295 3.86146L12.2097 4.75729C13.0629 5.35521 12.167 6.63438 11.3139 6.0375L10.0337 5.14167C9.18056 4.54375 10.0764 3.26459 10.9295 3.86146ZM22.0222 11.6281L23.3024 12.524C24.1556 13.1219 23.2597 14.401 22.4066 13.8042L21.1264 12.9083C20.2733 12.3104 21.1691 11.0313 22.0222 11.6281ZM24.241 8.29063L22.7024 8.56146C21.6764 8.74271 21.4056 7.20313 22.4316 7.02292L23.9701 6.75209C24.9962 6.57084 25.267 8.11042 24.241 8.29063Z" fill="#FFB300"/>
<path d="M7.40524 20.774L6.31149 23.3771C6.14483 23.775 6.33129 24.2333 6.7292 24.4C7.12712 24.5667 7.58545 24.3802 7.75212 23.9823L8.84587 21.3792C9.01253 20.9813 8.82608 20.5229 8.42816 20.3563C8.03024 20.1896 7.57191 20.376 7.40524 20.774ZM12.6136 19.7323L11.5198 22.3354C11.3532 22.7333 11.5396 23.1917 11.9375 23.3583C12.3355 23.525 12.7938 23.3385 12.9605 22.9406L14.0542 20.3375C14.2209 19.9396 14.0344 19.4813 13.6365 19.3146C13.2386 19.1479 12.7802 19.3344 12.6136 19.7323Z" fill="#66AFEB"/>
<path d="M6.25016 18.2083C3.94912 18.2083 2.0835 16.3427 2.0835 14.0417C2.0835 11.7406 3.94912 9.875 6.25016 9.875C6.68454 9.875 7.10225 9.94167 7.496 10.0646C8.08245 8.14583 9.86787 6.75 11.9793 6.75C14.5679 6.75 16.6668 8.84896 16.6668 11.4375C16.6668 11.6823 16.6481 11.9219 16.6116 12.1562C16.9533 12.0281 17.322 11.9583 17.7085 11.9583C19.4345 11.9583 20.8335 13.3573 20.8335 15.0833C20.8335 16.8094 19.4345 18.2083 17.7085 18.2083H6.25016Z" fill="url(#paint1_linear_15_867)"/>
<path d="M7.29183 11.4375C7.29183 14.026 9.39079 16.125 11.9793 16.125C14.3241 16.125 16.2658 14.4042 16.6116 12.1562C16.9533 12.0281 17.322 11.9583 17.7085 11.9583C19.4345 11.9583 20.8335 13.3573 20.8335 15.0833C20.8335 16.8094 19.4345 18.2083 17.7085 18.2083H6.25016C3.94912 18.2083 2.0835 16.3427 2.0835 14.0417C2.0835 11.7406 3.94912 9.875 6.25016 9.875C6.68454 9.875 7.10225 9.94167 7.496 10.0646C7.36266 10.499 7.29183 10.9594 7.29183 11.4375Z" fill="url(#paint2_radial_15_867)"/>
</g>
<defs>
<linearGradient id="paint0_linear_15_867" x1="20.8333" y1="4.66667" x2="14.9913" y2="10.4335" gradientUnits="userSpaceOnUse">
<stop stop-color="#FFB301"/>
<stop offset="1" stop-color="#FFC533"/>
</linearGradient>
<linearGradient id="paint1_linear_15_867" x1="11.4585" y1="6.75" x2="11.4585" y2="18.2083" gradientUnits="userSpaceOnUse">
<stop stop-color="#9FC7FF"/>
<stop offset="1" stop-color="#9BC1F5"/>
</linearGradient>
<radialGradient id="paint2_radial_15_867" cx="0" cy="0" r="1" gradientUnits="userSpaceOnUse" gradientTransform="translate(7.84805 -11.3211) rotate(-90) scale(10.9153 3.48805)">
<stop stop-color="#486DA8" stop-opacity="0.4"/>
<stop offset="1" stop-color="#486DA8" stop-opacity="0"/>
</radialGradient>
<clipPath id="clip0_15_867">
<rect width="25" height="25" fill="white" transform="translate(0 0.5)"/>
</clipPath>
</defs>
</svg>
