<svg width="393" height="129" viewBox="0 0 393 129" fill="none" xmlns="http://www.w3.org/2000/svg">
<rect width="449" height="129" fill="white"/>
<rect width="52" height="97" transform="translate(16 15.9999)" fill="white"/>
<path d="M27.709 26.9999V19.8456H27.6797L25.4707 21.369V20.1268L27.6973 18.5448H28.9922V26.9999H27.709ZM34.2363 27.1639C32.5137 27.1639 30.9141 25.951 30.9141 22.8866C30.9141 20.0565 32.168 18.3807 34.2832 18.3807C35.7949 18.3807 36.9609 19.2655 37.2129 20.5956H35.8945C35.666 19.8925 35.0801 19.4823 34.2715 19.4823C32.9297 19.4823 32.1914 20.7128 32.1738 22.8163H32.1973C32.5371 22.0487 33.3926 21.451 34.541 21.451C36.1582 21.451 37.3242 22.6346 37.3242 24.2343C37.3242 25.9335 36.0234 27.1639 34.2363 27.1639ZM34.2188 26.0565C35.2207 26.0565 36.0176 25.2714 36.0176 24.2811C36.0176 23.2557 35.2734 22.5175 34.2363 22.5175C33.1992 22.5175 32.4316 23.2499 32.4316 24.2518C32.4316 25.2596 33.2168 26.0565 34.2188 26.0565ZM44.3438 26.9999V24.8846H43.4238L41.9355 26.9999H40.4941L42.1758 24.6678C41.3203 24.4159 40.793 23.7772 40.793 22.9159C40.793 21.6327 41.7305 20.8358 43.1719 20.8358H45.5977V26.9999H44.3438ZM43.2363 23.912H44.3438V21.8319H43.2363C42.5156 21.8319 42.0527 22.2421 42.0527 22.91C42.0527 23.496 42.5215 23.912 43.2363 23.912ZM51 26.9999V24.3163H48.2227V26.9999H46.957V20.8358H48.2227V23.3202H51V20.8358H52.2656V26.9999H51ZM56.4727 26.9999H53.6367V20.8358H56.4375C57.6387 20.8358 58.3652 21.4393 58.3652 22.4237C58.3652 23.0624 57.9082 23.6483 57.3164 23.7596V23.8065C58.1133 23.912 58.6406 24.4628 58.6406 25.2245C58.6406 26.3085 57.8086 26.9999 56.4727 26.9999ZM54.8906 21.7557V23.3964H56.0449C56.7598 23.3964 57.1172 23.121 57.1172 22.5702C57.1172 22.0487 56.7832 21.7557 56.1738 21.7557H54.8906ZM54.8906 24.2811V26.08H56.2734C56.9824 26.08 57.375 25.7635 57.375 25.1718C57.375 24.5741 56.959 24.2811 56.127 24.2811H54.8906Z" fill="#A9AABC"/>
<path d="M29.1211 38.5516H29.1758L33.1953 34.1356H35.0273L30.6865 38.8387L35.4307 43.9999H33.4277L29.1758 39.3719H29.1211V43.9999H27.5898V34.1356H29.1211V38.5516ZM40.7012 41.8876H42.1094C41.8975 43.2001 40.6533 44.1366 39.0059 44.1366C36.8936 44.1366 35.6152 42.7079 35.6152 40.4384C35.6152 38.1825 36.9141 36.6786 38.9512 36.6786C40.9404 36.6786 42.1846 38.0868 42.1846 40.2675V40.7733H37.1055V40.8622C37.1055 42.1132 37.8574 42.9403 39.04 42.9403C39.8809 42.9403 40.5098 42.5165 40.7012 41.8876ZM38.9443 37.868C37.9121 37.868 37.1875 38.6542 37.1191 39.7411H40.708C40.6738 38.6405 39.9766 37.868 38.9443 37.868ZM49.2051 43.9999H47.7285V41.0399H47.6328C47.2295 41.3544 46.6621 41.5526 45.8828 41.5526C44.1738 41.5526 43.2373 40.5204 43.2373 38.9481V36.8085H44.7139V38.8387C44.7139 39.7343 45.1924 40.2948 46.1221 40.2948C46.8535 40.2948 47.4209 40.076 47.7285 39.7548V36.8085H49.2051V43.9999ZM52.9033 44.1229C51.502 44.1229 50.5107 43.2479 50.5107 41.9559C50.5107 40.6981 51.4746 39.9257 53.1836 39.83L55.1523 39.7137V39.16C55.1523 38.3602 54.6123 37.8817 53.71 37.8817C52.8555 37.8817 52.3223 38.2919 52.1924 38.9344H50.7979C50.8799 37.6356 51.9873 36.6786 53.7646 36.6786C55.5078 36.6786 56.6221 37.6014 56.6221 39.0438V43.9999H55.207V42.8173H55.1729C54.7559 43.6171 53.8467 44.1229 52.9033 44.1229ZM53.3135 42.954C54.3457 42.954 55.1523 42.243 55.1523 41.3065V40.7391L53.3818 40.8485C52.5 40.91 52.001 41.2997 52.001 41.9149C52.001 42.5438 52.5273 42.954 53.3135 42.954Z" fill="#1D3068"/>
<path d="M42.0003 80.3332C46.6027 80.3332 50.3337 76.6022 50.3337 71.9999C50.3337 67.3975 46.6027 63.6665 42.0003 63.6665C37.398 63.6665 33.667 67.3975 33.667 71.9999C33.667 76.6022 37.398 80.3332 42.0003 80.3332Z" fill="url(#paint0_linear_1_1296)"/>
<path d="M49.8318 56.3382L47.8735 61.0665C47.2351 62.6065 44.9251 61.6499 45.5635 60.1099L47.5218 55.3815C48.1601 53.8415 50.4701 54.7982 49.8318 56.3382ZM38.4218 83.8832L36.4635 88.6115C35.8252 90.1515 33.5151 89.1949 34.1535 87.6549L36.1118 82.9265C36.7501 81.3865 39.0601 82.3432 38.4218 83.8832ZM58.6085 66.4682L53.8801 68.4265C52.3401 69.0649 51.3835 66.7549 52.9235 66.1165L57.6518 64.1582C59.1918 63.5199 60.1485 65.8299 58.6085 66.4682ZM31.0635 77.8782L26.3351 79.8365C24.7951 80.4749 23.8385 78.1649 25.3785 77.5265L30.1068 75.5682C31.6468 74.9299 32.6035 77.2399 31.0635 77.8782ZM57.6518 79.8382L52.9235 77.8799C51.3835 77.2415 52.3401 74.9315 53.8801 75.5699L58.6085 77.5282C60.1485 78.1665 59.1918 80.4765 57.6518 79.8382ZM30.1068 68.4282L25.3785 66.4699C23.8385 65.8315 24.7951 63.5215 26.3351 64.1599L31.0635 66.1182C32.6035 66.7565 31.6468 69.0665 30.1068 68.4282ZM36.4618 55.3799L38.4201 60.1082C39.0585 61.6482 36.7485 62.6049 36.1101 61.0649L34.1518 56.3365C33.5135 54.7965 35.8235 53.8399 36.4618 55.3799ZM47.8718 82.9249L49.8301 87.6532C50.4685 89.1932 48.1585 90.1499 47.5201 88.6099L45.5618 83.8815C44.9235 82.3415 47.2335 81.3849 47.8718 82.9249Z" fill="#FFB300"/>
<path d="M21.2773 105.664H16.793V104.331H21.2773V105.664ZM23.3828 109L27.7646 100.462V100.428H22.5625V99.1356H29.2754V100.462L24.9893 109H23.3828ZM32.7891 103.77C31.5244 103.77 30.5537 102.793 30.5537 101.542C30.5537 100.291 31.5176 99.3134 32.7891 99.3134C34.0469 99.3134 35.0244 100.291 35.0244 101.542C35.0244 102.793 34.0469 103.77 32.7891 103.77ZM32.7891 102.642C33.3906 102.642 33.8623 102.157 33.8623 101.542C33.8623 100.92 33.3906 100.441 32.7891 100.441C32.208 100.441 31.7158 100.92 31.7158 101.542C31.7158 102.157 32.208 102.642 32.7891 102.642ZM46.6797 105.664H42.1953V104.331H46.6797V105.664ZM50.3506 109V100.653H50.3164L47.7393 102.431V100.981L50.3369 99.1356H51.8477V109H50.3506ZM57.8154 109.184C55.6279 109.184 54.083 108.002 54.083 106.334C54.083 105.076 54.9717 104.085 56.2705 103.805V103.77C55.1562 103.456 54.4385 102.615 54.4385 101.569C54.4385 100.058 55.8604 98.951 57.8154 98.951C59.7773 98.951 61.1787 100.052 61.1787 101.576C61.1787 102.608 60.4746 103.442 59.3604 103.77V103.805C60.6592 104.092 61.5479 105.083 61.5479 106.334C61.5479 108.009 59.9961 109.184 57.8154 109.184ZM57.8154 103.258C58.8955 103.258 59.668 102.615 59.668 101.713C59.668 100.804 58.9023 100.168 57.8154 100.168C56.7217 100.168 55.9629 100.804 55.9629 101.713C55.9629 102.615 56.7217 103.258 57.8154 103.258ZM57.8154 107.954C59.0732 107.954 59.9619 107.229 59.9619 106.224C59.9619 105.206 59.0732 104.488 57.8154 104.488C56.5576 104.488 55.6621 105.213 55.6621 106.224C55.6621 107.229 56.5576 107.954 57.8154 107.954ZM65.0684 103.77C63.8037 103.77 62.833 102.793 62.833 101.542C62.833 100.291 63.7969 99.3134 65.0684 99.3134C66.3262 99.3134 67.3037 100.291 67.3037 101.542C67.3037 102.793 66.3262 103.77 65.0684 103.77ZM65.0684 102.642C65.6699 102.642 66.1416 102.157 66.1416 101.542C66.1416 100.92 65.6699 100.441 65.0684 100.441C64.4873 100.441 63.9951 100.92 63.9951 101.542C63.9951 102.157 64.4873 102.642 65.0684 102.642Z" fill="#1D3068"/>
<rect width="53" height="97" transform="translate(88 15.9999)" fill="white"/>
<path d="M100.061 26.9999V19.8456H100.031L97.8223 21.369V20.1268L100.049 18.5448H101.344V26.9999H100.061ZM103.875 26.9999L107.631 19.6815V19.6522H103.172V18.5448H108.926V19.6815L105.252 26.9999H103.875ZM115.992 26.9999V24.8846H115.072L113.584 26.9999H112.143L113.824 24.6678C112.969 24.4159 112.441 23.7772 112.441 22.9159C112.441 21.6327 113.379 20.8358 114.82 20.8358H117.246V26.9999H115.992ZM114.885 23.912H115.992V21.8319H114.885C114.164 21.8319 113.701 22.2421 113.701 22.91C113.701 23.496 114.17 23.912 114.885 23.912ZM122.648 26.9999V24.3163H119.871V26.9999H118.605V20.8358H119.871V23.3202H122.648V20.8358H123.914V26.9999H122.648ZM128.121 26.9999H125.285V20.8358H128.086C129.287 20.8358 130.014 21.4393 130.014 22.4237C130.014 23.0624 129.557 23.6483 128.965 23.7596V23.8065C129.762 23.912 130.289 24.4628 130.289 25.2245C130.289 26.3085 129.457 26.9999 128.121 26.9999ZM126.539 21.7557V23.3964H127.693C128.408 23.3964 128.766 23.121 128.766 22.5702C128.766 22.0487 128.432 21.7557 127.822 21.7557H126.539ZM126.539 24.2811V26.08H127.922C128.631 26.08 129.023 25.7635 129.023 25.1718C129.023 24.5741 128.607 24.2811 127.775 24.2811H126.539Z" fill="#A9AABC"/>
<path d="M104.164 40.9852C104.164 42.7762 102.831 43.9999 100.917 43.9999H97.1641V34.1356H103.207V35.455H98.6953V37.9843H100.883C102.811 37.9843 104.164 39.2079 104.164 40.9852ZM98.6953 42.701H100.527C101.847 42.701 102.599 42.0858 102.599 40.9852C102.599 39.8778 101.84 39.2626 100.521 39.2626H98.6953V42.701ZM106.092 46.6796C105.976 46.6796 105.6 46.6659 105.49 46.6454V45.4491C105.6 45.4764 105.846 45.4764 105.969 45.4764C106.652 45.4764 107.021 45.1893 107.247 44.451C107.247 44.4374 107.377 44.0135 107.377 44.0067L104.779 36.8085H106.379L108.197 42.66H108.225L110.05 36.8085H111.608L108.908 44.3759C108.293 46.119 107.589 46.6796 106.092 46.6796ZM117.357 37.9774H114.069V43.9999H112.593V36.8085H117.357V37.9774ZM119.312 46.6796C119.196 46.6796 118.82 46.6659 118.711 46.6454V45.4491C118.82 45.4764 119.066 45.4764 119.189 45.4764C119.873 45.4764 120.242 45.1893 120.468 44.451C120.468 44.4374 120.598 44.0135 120.598 44.0067L118 36.8085H119.6L121.418 42.66H121.445L123.271 36.8085H124.829L122.129 44.3759C121.514 46.119 120.81 46.6796 119.312 46.6796ZM130.53 43.9999V40.869H127.29V43.9999H125.813V36.8085H127.29V39.7069H130.53V36.8085H132.007V43.9999H130.53Z" fill="#1D3068"/>
<path d="M114.5 80.3332C119.103 80.3332 122.834 76.6022 122.834 71.9999C122.834 67.3975 119.103 63.6665 114.5 63.6665C109.898 63.6665 106.167 67.3975 106.167 71.9999C106.167 76.6022 109.898 80.3332 114.5 80.3332Z" fill="url(#paint1_linear_1_1296)"/>
<path d="M122.332 56.3382L120.373 61.0665C119.735 62.6065 117.425 61.6499 118.063 60.1099L120.022 55.3815C120.66 53.8415 122.97 54.7982 122.332 56.3382ZM110.922 83.8832L108.963 88.6115C108.325 90.1515 106.015 89.1949 106.653 87.6549L108.612 82.9265C109.25 81.3865 111.56 82.3432 110.922 83.8832ZM131.108 66.4682L126.38 68.4265C124.84 69.0649 123.883 66.7549 125.423 66.1165L130.152 64.1582C131.692 63.5199 132.648 65.8299 131.108 66.4682ZM103.563 77.8782L98.8351 79.8365C97.2951 80.4749 96.3385 78.1649 97.8785 77.5265L102.607 75.5682C104.147 74.9299 105.103 77.2399 103.563 77.8782ZM130.152 79.8382L125.423 77.8799C123.883 77.2415 124.84 74.9315 126.38 75.5699L131.108 77.5282C132.648 78.1665 131.692 80.4765 130.152 79.8382ZM102.607 68.4282L97.8785 66.4699C96.3385 65.8315 97.2951 63.5215 98.8351 64.1599L103.563 66.1182C105.103 66.7565 104.147 69.0665 102.607 68.4282ZM108.962 55.3799L110.92 60.1082C111.558 61.6482 109.248 62.6049 108.61 61.0649L106.652 56.3365C106.013 54.7965 108.323 53.8399 108.962 55.3799ZM120.372 82.9249L122.33 87.6532C122.968 89.1932 120.658 90.1499 120.02 88.6099L118.062 83.8815C117.423 82.3415 119.733 81.3849 120.372 82.9249Z" fill="#FFB300"/>
<path d="M93.2773 105.664H88.793V104.331H93.2773V105.664ZM96.9756 104.509V103.319H98.1309C99.2588 103.319 100.024 102.656 100.024 101.733C100.024 100.81 99.4297 100.209 98.2676 100.209C97.1738 100.209 96.3809 100.79 96.3057 101.774H94.8701C94.9932 100.052 96.3398 98.951 98.2676 98.951C100.277 98.951 101.515 100.052 101.515 101.521C101.515 102.759 100.646 103.586 99.4365 103.839V103.873C100.886 104.003 101.856 104.885 101.856 106.266C101.856 108.002 100.339 109.184 98.2812 109.184C96.1689 109.184 94.7539 108.016 94.6582 106.32H96.1279C96.2031 107.284 97.0439 107.906 98.2812 107.906C99.4844 107.906 100.291 107.223 100.298 106.266C100.305 105.138 99.4912 104.509 98.1719 104.509H96.9756ZM105.473 103.77C104.208 103.77 103.237 102.793 103.237 101.542C103.237 100.291 104.201 99.3134 105.473 99.3134C106.73 99.3134 107.708 100.291 107.708 101.542C107.708 102.793 106.73 103.77 105.473 103.77ZM105.473 102.642C106.074 102.642 106.546 102.157 106.546 101.542C106.546 100.92 106.074 100.441 105.473 100.441C104.892 100.441 104.399 100.92 104.399 101.542C104.399 102.157 104.892 102.642 105.473 102.642ZM119.363 105.664H114.879V104.331H119.363V105.664ZM123.034 109V100.653H123L120.423 102.431V100.981L123.021 99.1356H124.531V109H123.034ZM126.855 102.041C126.855 100.25 128.305 98.951 130.287 98.951C132.222 98.951 133.527 100.188 133.527 101.74C133.527 102.875 132.994 103.661 131.23 105.425L128.988 107.674V107.708H133.685V109H126.938V107.947L130.417 104.44C131.716 103.114 132.017 102.608 132.017 101.836C132.017 100.927 131.333 100.216 130.287 100.216C129.159 100.216 128.305 100.988 128.305 102.041H126.855ZM137.205 103.77C135.94 103.77 134.97 102.793 134.97 101.542C134.97 100.291 135.934 99.3134 137.205 99.3134C138.463 99.3134 139.44 100.291 139.44 101.542C139.44 102.793 138.463 103.77 137.205 103.77ZM137.205 102.642C137.807 102.642 138.278 102.157 138.278 101.542C138.278 100.92 137.807 100.441 137.205 100.441C136.624 100.441 136.132 100.92 136.132 101.542C136.132 102.157 136.624 102.642 137.205 102.642Z" fill="#1D3068"/>
<rect width="51" height="97" transform="translate(161 15.9999)" fill="white"/>
<path d="M172.191 26.9999V19.8456H172.162L169.953 21.369V20.1268L172.18 18.5448H173.475V26.9999H172.191ZM178.59 27.1581C176.715 27.1581 175.391 26.1444 175.391 24.7147C175.391 23.6366 176.152 22.787 177.266 22.5468V22.5175C176.311 22.2479 175.695 21.5272 175.695 20.6307C175.695 19.3358 176.914 18.3866 178.59 18.3866C180.271 18.3866 181.473 19.33 181.473 20.6366C181.473 21.5214 180.869 22.2362 179.914 22.5175V22.5468C181.027 22.7928 181.789 23.6425 181.789 24.7147C181.789 26.1503 180.459 27.1581 178.59 27.1581ZM178.59 22.078C179.516 22.078 180.178 21.5272 180.178 20.7538C180.178 19.9745 179.521 19.4296 178.59 19.4296C177.652 19.4296 177.002 19.9745 177.002 20.7538C177.002 21.5272 177.652 22.078 178.59 22.078ZM178.59 26.1034C179.668 26.1034 180.43 25.4823 180.43 24.621C180.43 23.7479 179.668 23.1327 178.59 23.1327C177.512 23.1327 176.744 23.7538 176.744 24.621C176.744 25.4823 177.512 26.1034 178.59 26.1034ZM188.861 26.9999V24.8846H187.941L186.453 26.9999H185.012L186.693 24.6678C185.838 24.4159 185.311 23.7772 185.311 22.9159C185.311 21.6327 186.248 20.8358 187.689 20.8358H190.115V26.9999H188.861ZM187.754 23.912H188.861V21.8319H187.754C187.033 21.8319 186.57 22.2421 186.57 22.91C186.57 23.496 187.039 23.912 187.754 23.912ZM195.518 26.9999V24.3163H192.74V26.9999H191.475V20.8358H192.74V23.3202H195.518V20.8358H196.783V26.9999H195.518ZM200.99 26.9999H198.154V20.8358H200.955C202.156 20.8358 202.883 21.4393 202.883 22.4237C202.883 23.0624 202.426 23.6483 201.834 23.7596V23.8065C202.631 23.912 203.158 24.4628 203.158 25.2245C203.158 26.3085 202.326 26.9999 200.99 26.9999ZM199.408 21.7557V23.3964H200.562C201.277 23.3964 201.635 23.121 201.635 22.5702C201.635 22.0487 201.301 21.7557 200.691 21.7557H199.408ZM199.408 24.2811V26.08H200.791C201.5 26.08 201.893 25.7635 201.893 25.1718C201.893 24.5741 201.477 24.2811 200.645 24.2811H199.408Z" fill="#A9AABC"/>
<path d="M169.021 44.1844C166.806 44.1844 165.247 43.036 164.823 41.0809H166.361C166.71 42.1815 167.694 42.8241 169.014 42.8241C170.675 42.8241 171.823 41.5936 171.919 39.6112H167.708V38.326H171.898C171.748 36.4735 170.613 35.3114 169.021 35.3114C167.742 35.3114 166.683 36.0702 166.361 37.2391H164.823C165.151 35.2704 166.847 33.951 169.021 33.951C171.769 33.951 173.505 35.9403 173.505 39.0643C173.505 42.2089 171.789 44.1844 169.021 44.1844ZM178.673 36.6923C180.505 36.6923 181.701 38.1278 181.701 40.4042C181.701 42.6805 180.512 44.1229 178.7 44.1229C177.668 44.1229 176.848 43.6171 176.438 42.8173H176.403V46.3788H174.927V36.8085H176.355V38.0458H176.383C176.807 37.2186 177.634 36.6923 178.673 36.6923ZM178.283 42.8719C179.452 42.8719 180.184 41.9149 180.184 40.4042C180.184 38.9003 179.452 37.9364 178.283 37.9364C177.155 37.9364 176.396 38.9208 176.396 40.4042C176.396 41.9012 177.155 42.8719 178.283 42.8719ZM188.188 36.8085V37.9774H185.939V43.9999H184.456V37.9774H182.207V36.8085H188.188ZM191.142 44.1229C189.74 44.1229 188.749 43.2479 188.749 41.9559C188.749 40.6981 189.713 39.9257 191.422 39.83L193.391 39.7137V39.16C193.391 38.3602 192.851 37.8817 191.948 37.8817C191.094 37.8817 190.561 38.2919 190.431 38.9344H189.036C189.118 37.6356 190.226 36.6786 192.003 36.6786C193.746 36.6786 194.86 37.6014 194.86 39.0438V43.9999H193.445V42.8173H193.411C192.994 43.6171 192.085 44.1229 191.142 44.1229ZM191.552 42.954C192.584 42.954 193.391 42.243 193.391 41.3065V40.7391L191.62 40.8485C190.738 40.91 190.239 41.2997 190.239 41.9149C190.239 42.5438 190.766 42.954 191.552 42.954ZM201.184 37.9774H197.896V43.9999H196.419V36.8085H201.184V37.9774ZM204.239 44.1229C202.838 44.1229 201.847 43.2479 201.847 41.9559C201.847 40.6981 202.811 39.9257 204.52 39.83L206.488 39.7137V39.16C206.488 38.3602 205.948 37.8817 205.046 37.8817C204.191 37.8817 203.658 38.2919 203.528 38.9344H202.134C202.216 37.6356 203.323 36.6786 205.101 36.6786C206.844 36.6786 207.958 37.6014 207.958 39.0438V43.9999H206.543V42.8173H206.509C206.092 43.6171 205.183 44.1229 204.239 44.1229ZM204.649 42.954C205.682 42.954 206.488 42.243 206.488 41.3065V40.7391L204.718 40.8485C203.836 40.91 203.337 41.2997 203.337 41.9149C203.337 42.5438 203.863 42.954 204.649 42.954Z" fill="#1D3068"/>
<path d="M186.5 80.3332C191.103 80.3332 194.834 76.6022 194.834 71.9999C194.834 67.3975 191.103 63.6665 186.5 63.6665C181.898 63.6665 178.167 67.3975 178.167 71.9999C178.167 76.6022 181.898 80.3332 186.5 80.3332Z" fill="url(#paint2_linear_1_1296)"/>
<path d="M194.332 56.3382L192.373 61.0665C191.735 62.6065 189.425 61.6499 190.063 60.1099L192.022 55.3815C192.66 53.8415 194.97 54.7982 194.332 56.3382ZM182.922 83.8832L180.963 88.6115C180.325 90.1515 178.015 89.1949 178.653 87.6549L180.612 82.9265C181.25 81.3865 183.56 82.3432 182.922 83.8832ZM203.108 66.4682L198.38 68.4265C196.84 69.0649 195.883 66.7549 197.423 66.1165L202.152 64.1582C203.692 63.5199 204.648 65.8299 203.108 66.4682ZM175.563 77.8782L170.835 79.8365C169.295 80.4749 168.338 78.1649 169.878 77.5265L174.607 75.5682C176.147 74.9299 177.103 77.2399 175.563 77.8782ZM202.152 79.8382L197.423 77.8799C195.883 77.2415 196.84 74.9315 198.38 75.5699L203.108 77.5282C204.648 78.1665 203.692 80.4765 202.152 79.8382ZM174.607 68.4282L169.878 66.4699C168.338 65.8315 169.295 63.5215 170.835 64.1599L175.563 66.1182C177.103 66.7565 176.147 69.0665 174.607 68.4282ZM180.962 55.3799L182.92 60.1082C183.558 61.6482 181.248 62.6049 180.61 61.0649L178.652 56.3365C178.013 54.7965 180.323 53.8399 180.962 55.3799ZM192.372 82.9249L194.33 87.6532C194.968 89.1932 192.658 90.1499 192.02 88.6099L190.062 83.8815C189.423 82.3415 191.733 81.3849 192.372 82.9249Z" fill="#FFB300"/>
<path d="M166.277 105.664H161.793V104.331H166.277V105.664ZM169.948 109V100.653H169.914L167.337 102.431V100.981L169.935 99.1356H171.445V109H169.948ZM175.725 103.77C174.46 103.77 173.489 102.793 173.489 101.542C173.489 100.291 174.453 99.3134 175.725 99.3134C176.982 99.3134 177.96 100.291 177.96 101.542C177.96 102.793 176.982 103.77 175.725 103.77ZM175.725 102.642C176.326 102.642 176.798 102.157 176.798 101.542C176.798 100.92 176.326 100.441 175.725 100.441C175.144 100.441 174.651 100.92 174.651 101.542C174.651 102.157 175.144 102.642 175.725 102.642ZM189.615 105.664H185.131V104.331H189.615V105.664ZM193.286 109V100.653H193.252L190.675 102.431V100.981L193.272 99.1356H194.783V109H193.286ZM200.799 109.184C198.42 109.184 197.019 107.202 197.019 104.057C197.019 100.933 198.44 98.951 200.799 98.951C203.157 98.951 204.565 100.927 204.565 104.051C204.565 107.195 203.171 109.184 200.799 109.184ZM200.799 107.899C202.221 107.899 203.021 106.45 203.021 104.057C203.021 101.699 202.207 100.236 200.799 100.236C199.391 100.236 198.57 101.706 198.57 104.057C198.57 106.443 199.37 107.899 200.799 107.899ZM208.086 103.77C206.821 103.77 205.851 102.793 205.851 101.542C205.851 100.291 206.814 99.3134 208.086 99.3134C209.344 99.3134 210.321 100.291 210.321 101.542C210.321 102.793 209.344 103.77 208.086 103.77ZM208.086 102.642C208.688 102.642 209.159 102.157 209.159 101.542C209.159 100.92 208.688 100.441 208.086 100.441C207.505 100.441 207.013 100.92 207.013 101.542C207.013 102.157 207.505 102.642 208.086 102.642Z" fill="#1D3068"/>
<rect width="67" height="97" transform="translate(232 15.9999)" fill="white"/>
<path d="M251.215 26.9999V19.8456H251.186L248.977 21.369V20.1268L251.203 18.5448H252.498V26.9999H251.215ZM257.391 27.1581C255.861 27.1581 254.678 26.285 254.438 24.9725H255.756C255.973 25.6874 256.582 26.0682 257.402 26.0682C258.779 26.0682 259.482 24.8026 259.494 22.7167H259.471C259.131 23.5428 258.24 24.0936 257.15 24.0936C255.557 24.0936 254.344 22.9335 254.344 21.3104C254.344 19.6112 255.645 18.3807 257.432 18.3807C259.066 18.3807 260.76 19.494 260.76 22.6522C260.76 25.4823 259.506 27.1581 257.391 27.1581ZM257.432 23.0272C258.469 23.0272 259.242 22.2948 259.242 21.2928C259.242 20.285 258.457 19.4999 257.449 19.4999C256.441 19.4999 255.645 20.2792 255.645 21.2635C255.645 22.2889 256.406 23.0272 257.432 23.0272ZM267.838 26.9999V24.8846H266.918L265.43 26.9999H263.988L265.67 24.6678C264.814 24.4159 264.287 23.7772 264.287 22.9159C264.287 21.6327 265.225 20.8358 266.666 20.8358H269.092V26.9999H267.838ZM266.73 23.912H267.838V21.8319H266.73C266.01 21.8319 265.547 22.2421 265.547 22.91C265.547 23.496 266.016 23.912 266.73 23.912ZM274.494 26.9999V24.3163H271.717V26.9999H270.451V20.8358H271.717V23.3202H274.494V20.8358H275.76V26.9999H274.494ZM279.967 26.9999H277.131V20.8358H279.932C281.133 20.8358 281.859 21.4393 281.859 22.4237C281.859 23.0624 281.402 23.6483 280.811 23.7596V23.8065C281.607 23.912 282.135 24.4628 282.135 25.2245C282.135 26.3085 281.303 26.9999 279.967 26.9999ZM278.385 21.7557V23.3964H279.539C280.254 23.3964 280.611 23.121 280.611 22.5702C280.611 22.0487 280.277 21.7557 279.668 21.7557H278.385ZM278.385 24.2811V26.08H279.768C280.477 26.08 280.869 25.7635 280.869 25.1718C280.869 24.5741 280.453 24.2811 279.621 24.2811H278.385Z" fill="#A9AABC"/>
<path d="M241.226 43.9999H239.701V35.4686H234.766V43.9999H233.228V34.1356H241.226V43.9999ZM245.102 44.1229C243.7 44.1229 242.709 43.2479 242.709 41.9559C242.709 40.6981 243.673 39.9257 245.382 39.83L247.351 39.7137V39.16C247.351 38.3602 246.811 37.8817 245.908 37.8817C245.054 37.8817 244.521 38.2919 244.391 38.9344H242.996C243.078 37.6356 244.186 36.6786 245.963 36.6786C247.706 36.6786 248.82 37.6014 248.82 39.0438V43.9999H247.405V42.8173H247.371C246.954 43.6171 246.045 44.1229 245.102 44.1229ZM245.512 42.954C246.544 42.954 247.351 42.243 247.351 41.3065V40.7391L245.58 40.8485C244.698 40.91 244.199 41.2997 244.199 41.9149C244.199 42.5438 244.726 42.954 245.512 42.954ZM251.254 33.7118H252.259C252.266 34.4706 252.751 35.0585 253.544 35.0585C254.33 35.0585 254.822 34.4706 254.829 33.7118H255.834C255.827 34.9696 254.925 35.8651 253.544 35.8651C252.163 35.8651 251.261 34.9696 251.254 33.7118ZM251.835 43.9999H250.379V36.8085H251.842V41.8397H251.896L255.212 36.8085H256.668V43.9999H255.198V38.9481H255.144L251.835 43.9999ZM258.254 43.9999V36.8085H259.73V42.8309H262.13V36.8085H263.613V42.8309H266.013V36.8085H267.489V43.9999H258.254ZM271.188 44.1229C269.786 44.1229 268.795 43.2479 268.795 41.9559C268.795 40.6981 269.759 39.9257 271.468 39.83L273.437 39.7137V39.16C273.437 38.3602 272.896 37.8817 271.994 37.8817C271.14 37.8817 270.606 38.2919 270.477 38.9344H269.082C269.164 37.6356 270.271 36.6786 272.049 36.6786C273.792 36.6786 274.906 37.6014 274.906 39.0438V43.9999H273.491V42.8173H273.457C273.04 43.6171 272.131 44.1229 271.188 44.1229ZM271.598 42.954C272.63 42.954 273.437 42.243 273.437 41.3065V40.7391L271.666 40.8485C270.784 40.91 270.285 41.2997 270.285 41.9149C270.285 42.5438 270.812 42.954 271.598 42.954ZM281.182 43.9999V40.869H277.941V43.9999H276.465V36.8085H277.941V39.7069H281.182V36.8085H282.658V43.9999H281.182ZM287.464 44.1366C285.215 44.1366 283.998 42.6669 283.998 39.8231C283.998 35.8309 285.16 34.2108 287.895 34.1151L288.537 34.0946C289.31 34.0604 290.089 33.9169 290.417 33.7391V34.9628C290.232 35.1337 289.501 35.3114 288.619 35.3456L287.99 35.3661C286.069 35.4344 285.461 36.2958 285.194 38.326H285.249C285.707 37.4784 286.575 37.0135 287.703 37.0135C289.645 37.0135 290.889 38.3671 290.889 40.4862C290.889 42.7489 289.583 44.1366 287.464 44.1366ZM287.45 42.8993C288.667 42.8993 289.378 42.038 289.378 40.5067C289.378 39.0507 288.667 38.2167 287.45 38.2167C286.227 38.2167 285.509 39.0507 285.509 40.5067C285.509 42.038 286.22 42.8993 287.45 42.8993ZM294.266 44.1229C292.864 44.1229 291.873 43.2479 291.873 41.9559C291.873 40.6981 292.837 39.9257 294.546 39.83L296.515 39.7137V39.16C296.515 38.3602 295.975 37.8817 295.072 37.8817C294.218 37.8817 293.685 38.2919 293.555 38.9344H292.16C292.242 37.6356 293.35 36.6786 295.127 36.6786C296.87 36.6786 297.984 37.6014 297.984 39.0438V43.9999H296.569V42.8173H296.535C296.118 43.6171 295.209 44.1229 294.266 44.1229ZM294.676 42.954C295.708 42.954 296.515 42.243 296.515 41.3065V40.7391L294.744 40.8485C293.862 40.91 293.363 41.2997 293.363 41.9149C293.363 42.5438 293.89 42.954 294.676 42.954Z" fill="#1D3068"/>
<path d="M265.5 80.3332C270.103 80.3332 273.834 76.6022 273.834 71.9999C273.834 67.3975 270.103 63.6665 265.5 63.6665C260.898 63.6665 257.167 67.3975 257.167 71.9999C257.167 76.6022 260.898 80.3332 265.5 80.3332Z" fill="url(#paint3_linear_1_1296)"/>
<path d="M273.332 56.3382L271.373 61.0665C270.735 62.6065 268.425 61.6499 269.063 60.1099L271.022 55.3815C271.66 53.8415 273.97 54.7982 273.332 56.3382ZM261.922 83.8832L259.963 88.6115C259.325 90.1515 257.015 89.1949 257.653 87.6549L259.612 82.9265C260.25 81.3865 262.56 82.3432 261.922 83.8832ZM282.108 66.4682L277.38 68.4265C275.84 69.0649 274.883 66.7549 276.423 66.1165L281.152 64.1582C282.692 63.5199 283.648 65.8299 282.108 66.4682ZM254.563 77.8782L249.835 79.8365C248.295 80.4749 247.338 78.1649 248.878 77.5265L253.607 75.5682C255.147 74.9299 256.103 77.2399 254.563 77.8782ZM281.152 79.8382L276.423 77.8799C274.883 77.2415 275.84 74.9315 277.38 75.5699L282.108 77.5282C283.648 78.1665 282.692 80.4765 281.152 79.8382ZM253.607 68.4282L248.878 66.4699C247.338 65.8315 248.295 63.5215 249.835 64.1599L254.563 66.1182C256.103 66.7565 255.147 69.0665 253.607 68.4282ZM259.962 55.3799L261.92 60.1082C262.558 61.6482 260.248 62.6049 259.61 61.0649L257.652 56.3365C257.013 54.7965 259.323 53.8399 259.962 55.3799ZM271.372 82.9249L273.33 87.6532C273.968 89.1932 271.658 90.1499 271.02 88.6099L269.062 83.8815C268.423 82.3415 270.733 81.3849 271.372 82.9249Z" fill="#FFB300"/>
<path d="M248.777 105.664H244.293V104.331H248.777V105.664ZM252.448 109V100.653H252.414L249.837 102.431V100.981L252.435 99.1356H253.945V109H252.448ZM258.225 103.77C256.96 103.77 255.989 102.793 255.989 101.542C255.989 100.291 256.953 99.3134 258.225 99.3134C259.482 99.3134 260.46 100.291 260.46 101.542C260.46 102.793 259.482 103.77 258.225 103.77ZM258.225 102.642C258.826 102.642 259.298 102.157 259.298 101.542C259.298 100.92 258.826 100.441 258.225 100.441C257.644 100.441 257.151 100.92 257.151 101.542C257.151 102.157 257.644 102.642 258.225 102.642ZM272.115 105.664H267.631V104.331H272.115V105.664ZM276.989 109.184C275.205 109.184 273.824 108.166 273.544 106.635H275.082C275.335 107.469 276.046 107.913 277.003 107.913C278.609 107.913 279.43 106.436 279.443 104.003H279.416C279.02 104.967 277.98 105.609 276.709 105.609C274.85 105.609 273.435 104.256 273.435 102.362C273.435 100.38 274.952 98.9442 277.037 98.9442C278.944 98.9442 280.92 100.243 280.92 103.928C280.92 107.229 279.457 109.184 276.989 109.184ZM277.037 104.365C278.247 104.365 279.149 103.511 279.149 102.342C279.149 101.166 278.233 100.25 277.058 100.25C275.882 100.25 274.952 101.159 274.952 102.307C274.952 103.504 275.841 104.365 277.037 104.365ZM284.447 103.77C283.183 103.77 282.212 102.793 282.212 101.542C282.212 100.291 283.176 99.3134 284.447 99.3134C285.705 99.3134 286.683 100.291 286.683 101.542C286.683 102.793 285.705 103.77 284.447 103.77ZM284.447 102.642C285.049 102.642 285.521 102.157 285.521 101.542C285.521 100.92 285.049 100.441 284.447 100.441C283.866 100.441 283.374 100.92 283.374 101.542C283.374 102.157 283.866 102.642 284.447 102.642Z" fill="#1D3068"/>
<rect width="47" height="97" transform="translate(319 15.9999)" fill="white"/>
<path d="M325.221 21.035C325.221 19.4999 326.463 18.3866 328.162 18.3866C329.82 18.3866 330.939 19.4471 330.939 20.7772C330.939 21.7499 330.482 22.4237 328.971 23.9354L327.049 25.8632V25.8925H331.074V26.9999H325.291V26.0975L328.273 23.0917C329.387 21.955 329.645 21.5214 329.645 20.8593C329.645 20.08 329.059 19.4706 328.162 19.4706C327.195 19.4706 326.463 20.1327 326.463 21.035H325.221ZM335.322 27.1581C333.283 27.1581 332.082 25.4589 332.082 22.7635C332.082 20.0858 333.301 18.3866 335.322 18.3866C337.344 18.3866 338.551 20.08 338.551 22.7577C338.551 25.453 337.355 27.1581 335.322 27.1581ZM335.322 26.0565C336.541 26.0565 337.227 24.8143 337.227 22.7635C337.227 20.7421 336.529 19.4882 335.322 19.4882C334.115 19.4882 333.412 20.7479 333.412 22.7635C333.412 24.8085 334.098 26.0565 335.322 26.0565ZM345.623 26.9999V24.8846H344.703L343.215 26.9999H341.773L343.455 24.6678C342.6 24.4159 342.072 23.7772 342.072 22.9159C342.072 21.6327 343.01 20.8358 344.451 20.8358H346.877V26.9999H345.623ZM344.516 23.912H345.623V21.8319H344.516C343.795 21.8319 343.332 22.2421 343.332 22.91C343.332 23.496 343.801 23.912 344.516 23.912ZM352.279 26.9999V24.3163H349.502V26.9999H348.236V20.8358H349.502V23.3202H352.279V20.8358H353.545V26.9999H352.279ZM357.752 26.9999H354.916V20.8358H357.717C358.918 20.8358 359.645 21.4393 359.645 22.4237C359.645 23.0624 359.188 23.6483 358.596 23.7596V23.8065C359.393 23.912 359.92 24.4628 359.92 25.2245C359.92 26.3085 359.088 26.9999 357.752 26.9999ZM356.17 21.7557V23.3964H357.324C358.039 23.3964 358.396 23.121 358.396 22.5702C358.396 22.0487 358.062 21.7557 357.453 21.7557H356.17ZM356.17 24.2811V26.08H357.553C358.262 26.08 358.654 25.7635 358.654 25.1718C358.654 24.5741 358.238 24.2811 357.406 24.2811H356.17Z" fill="#A9AABC"/>
<path d="M331.248 38.5516H331.303L335.028 34.1356H336.833L332.779 38.8456L337.223 43.9999H335.254L331.303 39.3719H331.248V43.9999H329.737V39.3719H329.683L325.704 43.9999H323.797L328.206 38.8593L324.132 34.1356H325.971L329.683 38.5516H329.737V34.1356H331.248V38.5516ZM338.31 46.6796C338.193 46.6796 337.817 46.6659 337.708 46.6454V45.4491C337.817 45.4764 338.063 45.4764 338.187 45.4764C338.87 45.4764 339.239 45.1893 339.465 44.451C339.465 44.4374 339.595 44.0135 339.595 44.0067L336.997 36.8085H338.597L340.415 42.66H340.442L342.268 36.8085H343.826L341.126 44.3759C340.511 46.119 339.807 46.6796 338.31 46.6796ZM346.232 43.9999H344.811V36.8085H346.663L348.967 42.079H349.021L351.339 36.8085H353.15V43.9999H351.715V39.0096H351.667L349.514 43.7196H348.434L346.28 39.0096H346.232V43.9999ZM356.842 44.1229C355.44 44.1229 354.449 43.2479 354.449 41.9559C354.449 40.6981 355.413 39.9257 357.122 39.83L359.091 39.7137V39.16C359.091 38.3602 358.551 37.8817 357.648 37.8817C356.794 37.8817 356.261 38.2919 356.131 38.9344H354.736C354.818 37.6356 355.926 36.6786 357.703 36.6786C359.446 36.6786 360.561 37.6014 360.561 39.0438V43.9999H359.146V42.8173H359.111C358.694 43.6171 357.785 44.1229 356.842 44.1229ZM357.252 42.954C358.284 42.954 359.091 42.243 359.091 41.3065V40.7391L357.32 40.8485C356.438 40.91 355.939 41.2997 355.939 41.9149C355.939 42.5438 356.466 42.954 357.252 42.954Z" fill="#1D3068"/>
<path opacity="0.32" d="M354.167 75.3332C356.928 75.3332 359.167 73.0949 359.167 70.3332C359.167 67.5715 356.928 65.3332 354.167 65.3332H354.115C354.148 65.0599 354.167 64.7815 354.167 64.4999C354.167 60.8182 351.182 57.8332 347.5 57.8332C344.583 57.8332 342.103 59.7065 341.2 62.3149C340.558 62.1099 339.877 61.9999 339.167 61.9999C335.485 61.9999 332.5 64.9849 332.5 68.6665C332.5 72.3482 335.485 75.3332 339.167 75.3332C339.742 75.3332 340.3 75.2599 340.833 75.1232V75.3332H354.167Z" fill="#73A5E6"/>
<path d="M332.5 83.6665C328.818 83.6665 325.833 80.6815 325.833 76.9999C325.833 73.3182 328.818 70.3332 332.5 70.3332C333.195 70.3332 333.863 70.4399 334.493 70.6365C335.432 67.5665 338.288 65.3332 341.667 65.3332C345.808 65.3332 349.167 68.6915 349.167 72.8332C349.167 73.2249 349.137 73.6082 349.078 73.9832C349.625 73.7782 350.215 73.6665 350.833 73.6665C353.595 73.6665 355.833 75.9049 355.833 78.6665C355.833 81.4282 353.595 83.6665 350.833 83.6665H332.5Z" fill="url(#paint4_linear_1_1296)"/>
<path d="M334.167 72.8332C334.167 76.9749 337.525 80.3332 341.667 80.3332C345.418 80.3332 348.525 77.5799 349.078 73.9832C349.625 73.7782 350.215 73.6665 350.833 73.6665C353.595 73.6665 355.833 75.9049 355.833 78.6665C355.833 81.4282 353.595 83.6665 350.833 83.6665H332.5C328.818 83.6665 325.833 80.6815 325.833 76.9999C325.833 73.3182 328.818 70.3332 332.5 70.3332C333.195 70.3332 333.863 70.4399 334.493 70.6365C334.28 71.3315 334.167 72.0682 334.167 72.8332Z" fill="url(#paint5_radial_1_1296)"/>
<path d="M324.277 105.664H319.793V104.331H324.277V105.664ZM325.754 102.041C325.754 100.25 327.203 98.951 329.186 98.951C331.12 98.951 332.426 100.188 332.426 101.74C332.426 102.875 331.893 103.661 330.129 105.425L327.887 107.674V107.708H332.583V109H325.836V107.947L329.315 104.44C330.614 103.114 330.915 102.608 330.915 101.836C330.915 100.927 330.231 100.216 329.186 100.216C328.058 100.216 327.203 100.988 327.203 102.041H325.754ZM336.104 103.77C334.839 103.77 333.868 102.793 333.868 101.542C333.868 100.291 334.832 99.3134 336.104 99.3134C337.361 99.3134 338.339 100.291 338.339 101.542C338.339 102.793 337.361 103.77 336.104 103.77ZM336.104 102.642C336.705 102.642 337.177 102.157 337.177 101.542C337.177 100.92 336.705 100.441 336.104 100.441C335.522 100.441 335.03 100.92 335.03 101.542C335.03 102.157 335.522 102.642 336.104 102.642ZM349.994 105.664H345.51V104.331H349.994V105.664ZM354.868 109.184C353.084 109.184 351.703 108.166 351.423 106.635H352.961C353.214 107.469 353.925 107.913 354.882 107.913C356.488 107.913 357.309 106.436 357.322 104.003H357.295C356.898 104.967 355.859 105.609 354.588 105.609C352.729 105.609 351.313 104.256 351.313 102.362C351.313 100.38 352.831 98.9442 354.916 98.9442C356.823 98.9442 358.799 100.243 358.799 103.928C358.799 107.229 357.336 109.184 354.868 109.184ZM354.916 104.365C356.126 104.365 357.028 103.511 357.028 102.342C357.028 101.166 356.112 100.25 354.937 100.25C353.761 100.25 352.831 101.159 352.831 102.307C352.831 103.504 353.72 104.365 354.916 104.365ZM362.326 103.77C361.062 103.77 360.091 102.793 360.091 101.542C360.091 100.291 361.055 99.3134 362.326 99.3134C363.584 99.3134 364.562 100.291 364.562 101.542C364.562 102.793 363.584 103.77 362.326 103.77ZM362.326 102.642C362.928 102.642 363.399 102.157 363.399 101.542C363.399 100.92 362.928 100.441 362.326 100.441C361.745 100.441 361.253 100.92 361.253 101.542C361.253 102.157 361.745 102.642 362.326 102.642Z" fill="#1D3068"/>
<rect width="47" height="97" transform="translate(386 15.9999)" fill="white"/>
<path d="M388.678 43.993V34.1288H390.209V42.6737H393.497V34.1288H395.028V42.6737H398.323V34.1288H399.854V43.993H388.678ZM403.737 44.1229C402.336 44.1229 401.345 43.2479 401.345 41.9559C401.345 40.6981 402.309 39.9257 404.018 39.83L405.986 39.7137V39.16C405.986 38.3602 405.446 37.8817 404.544 37.8817C403.689 37.8817 403.156 38.2919 403.026 38.9344H401.632C401.714 37.6356 402.821 36.6786 404.599 36.6786C406.342 36.6786 407.456 37.6014 407.456 39.0438V43.9999H406.041V42.8173H406.007C405.59 43.6171 404.681 44.1229 403.737 44.1229ZM404.147 42.954C405.18 42.954 405.986 42.243 405.986 41.3065V40.7391L404.216 40.8485C403.334 40.91 402.835 41.2997 402.835 41.9149C402.835 42.5438 403.361 42.954 404.147 42.954ZM413.731 43.9999V40.869H410.491V43.9999H409.015V36.8085H410.491V39.7069H413.731V36.8085H415.208V43.9999H413.731ZM420.014 44.1366C417.765 44.1366 416.548 42.6669 416.548 39.8231C416.548 35.8309 417.71 34.2108 420.444 34.1151L421.087 34.0946C421.859 34.0604 422.639 33.9169 422.967 33.7391V34.9628C422.782 35.1337 422.051 35.3114 421.169 35.3456L420.54 35.3661C418.619 35.4344 418.011 36.2958 417.744 38.326H417.799C418.257 37.4784 419.125 37.0135 420.253 37.0135C422.194 37.0135 423.438 38.3671 423.438 40.4862C423.438 42.7489 422.133 44.1366 420.014 44.1366ZM420 42.8993C421.217 42.8993 421.928 42.038 421.928 40.5067C421.928 39.0507 421.217 38.2167 420 38.2167C418.776 38.2167 418.059 39.0507 418.059 40.5067C418.059 42.038 418.77 42.8993 420 42.8993ZM426.815 44.1229C425.414 44.1229 424.423 43.2479 424.423 41.9559C424.423 40.6981 425.387 39.9257 427.096 39.83L429.064 39.7137V39.16C429.064 38.3602 428.524 37.8817 427.622 37.8817C426.768 37.8817 426.234 38.2919 426.104 38.9344H424.71C424.792 37.6356 425.899 36.6786 427.677 36.6786C429.42 36.6786 430.534 37.6014 430.534 39.0438V43.9999H429.119V42.8173H429.085C428.668 43.6171 427.759 44.1229 426.815 44.1229ZM427.226 42.954C428.258 42.954 429.064 42.243 429.064 41.3065V40.7391L427.294 40.8485C426.412 40.91 425.913 41.2997 425.913 41.9149C425.913 42.5438 426.439 42.954 427.226 42.954Z" fill="#1D3068"/>
<path d="M399.5 83.6665C395.818 83.6665 392.833 80.6815 392.833 76.9999C392.833 73.3182 395.818 70.3332 399.5 70.3332C400.195 70.3332 400.863 70.4399 401.493 70.6365C402.432 67.5665 405.288 65.3332 408.667 65.3332C412.808 65.3332 416.167 68.6915 416.167 72.8332C416.167 73.2249 416.137 73.6082 416.078 73.9832C416.625 73.7782 417.215 73.6665 417.833 73.6665C420.595 73.6665 422.833 75.9049 422.833 78.6665C422.833 81.4282 420.595 83.6665 417.833 83.6665H399.5Z" fill="url(#paint6_linear_1_1296)"/>
<path d="M401.167 72.8332C401.167 76.9749 404.525 80.3332 408.667 80.3332C412.418 80.3332 415.525 77.5799 416.078 73.9832C416.625 73.7782 417.215 73.6665 417.833 73.6665C420.595 73.6665 422.833 75.9049 422.833 78.6665C422.833 81.4282 420.595 83.6665 417.833 83.6665H399.5C395.818 83.6665 392.833 80.6815 392.833 76.9999C392.833 73.3182 395.818 70.3332 399.5 70.3332C400.195 70.3332 400.863 70.4399 401.493 70.6365C401.28 71.3315 401.167 72.0682 401.167 72.8332Z" fill="url(#paint7_radial_1_1296)"/>
<path d="M391.277 105.664H386.793V104.331H391.277V105.664ZM392.754 102.041C392.754 100.25 394.203 98.951 396.186 98.951C398.12 98.951 399.426 100.188 399.426 101.74C399.426 102.875 398.893 103.661 397.129 105.425L394.887 107.674V107.708H399.583V109H392.836V107.947L396.315 104.44C397.614 103.114 397.915 102.608 397.915 101.836C397.915 100.927 397.231 100.216 396.186 100.216C395.058 100.216 394.203 100.988 394.203 102.041H392.754ZM403.104 103.77C401.839 103.77 400.868 102.793 400.868 101.542C400.868 100.291 401.832 99.3134 403.104 99.3134C404.361 99.3134 405.339 100.291 405.339 101.542C405.339 102.793 404.361 103.77 403.104 103.77ZM403.104 102.642C403.705 102.642 404.177 102.157 404.177 101.542C404.177 100.92 403.705 100.441 403.104 100.441C402.522 100.441 402.03 100.92 402.03 101.542C402.03 102.157 402.522 102.642 403.104 102.642ZM416.994 105.664H412.51V104.331H416.994V105.664ZM422.114 109.184C419.927 109.184 418.382 108.002 418.382 106.334C418.382 105.076 419.271 104.085 420.569 103.805V103.77C419.455 103.456 418.737 102.615 418.737 101.569C418.737 100.058 420.159 98.951 422.114 98.951C424.076 98.951 425.478 100.052 425.478 101.576C425.478 102.608 424.773 103.442 423.659 103.77V103.805C424.958 104.092 425.847 105.083 425.847 106.334C425.847 108.009 424.295 109.184 422.114 109.184ZM422.114 103.258C423.194 103.258 423.967 102.615 423.967 101.713C423.967 100.804 423.201 100.168 422.114 100.168C421.021 100.168 420.262 100.804 420.262 101.713C420.262 102.615 421.021 103.258 422.114 103.258ZM422.114 107.954C423.372 107.954 424.261 107.229 424.261 106.224C424.261 105.206 423.372 104.488 422.114 104.488C420.856 104.488 419.961 105.213 419.961 106.224C419.961 107.229 420.856 107.954 422.114 107.954ZM429.367 103.77C428.103 103.77 427.132 102.793 427.132 101.542C427.132 100.291 428.096 99.3134 429.367 99.3134C430.625 99.3134 431.603 100.291 431.603 101.542C431.603 102.793 430.625 103.77 429.367 103.77ZM429.367 102.642C429.969 102.642 430.44 102.157 430.44 101.542C430.44 100.92 429.969 100.441 429.367 100.441C428.786 100.441 428.294 100.92 428.294 101.542C428.294 102.157 428.786 102.642 429.367 102.642Z" fill="#1D3068"/>
<defs>
<linearGradient id="paint0_linear_1_1296" x1="42.0003" y1="63.6665" x2="42.0003" y2="80.111" gradientUnits="userSpaceOnUse">
<stop stop-color="#FFC227"/>
<stop offset="1" stop-color="#FFB300"/>
</linearGradient>
<linearGradient id="paint1_linear_1_1296" x1="114.5" y1="63.6665" x2="114.5" y2="80.111" gradientUnits="userSpaceOnUse">
<stop stop-color="#FFC227"/>
<stop offset="1" stop-color="#FFB300"/>
</linearGradient>
<linearGradient id="paint2_linear_1_1296" x1="186.5" y1="63.6665" x2="186.5" y2="80.111" gradientUnits="userSpaceOnUse">
<stop stop-color="#FFC227"/>
<stop offset="1" stop-color="#FFB300"/>
</linearGradient>
<linearGradient id="paint3_linear_1_1296" x1="265.5" y1="63.6665" x2="265.5" y2="80.111" gradientUnits="userSpaceOnUse">
<stop stop-color="#FFC227"/>
<stop offset="1" stop-color="#FFB300"/>
</linearGradient>
<linearGradient id="paint4_linear_1_1296" x1="340.833" y1="65.3332" x2="340.833" y2="83.6665" gradientUnits="userSpaceOnUse">
<stop stop-color="#9FC7FF"/>
<stop offset="1" stop-color="#9BC1F5"/>
</linearGradient>
<radialGradient id="paint5_radial_1_1296" cx="0" cy="0" r="1" gradientUnits="userSpaceOnUse" gradientTransform="translate(337.453 33.086) rotate(-90) scale(17.4645 5.58088)">
<stop stop-color="#486DA8" stop-opacity="0.4"/>
<stop offset="1" stop-color="#486DA8" stop-opacity="0"/>
</radialGradient>
<linearGradient id="paint6_linear_1_1296" x1="407.833" y1="65.3332" x2="407.833" y2="83.6665" gradientUnits="userSpaceOnUse">
<stop stop-color="#9FC7FF"/>
<stop offset="1" stop-color="#9BC1F5"/>
</linearGradient>
<radialGradient id="paint7_radial_1_1296" cx="0" cy="0" r="1" gradientUnits="userSpaceOnUse" gradientTransform="translate(404.453 33.086) rotate(-90) scale(17.4645 5.58088)">
<stop stop-color="#486DA8" stop-opacity="0.4"/>
<stop offset="1" stop-color="#486DA8" stop-opacity="0"/>
</radialGradient>
</defs>
</svg>
