<svg width="35" height="35" viewBox="0 0 35 35" fill="none" xmlns="http://www.w3.org/2000/svg">
<path d="M27.1788 12.5078C26.9495 11.6477 26.2729 10.9711 25.4128 10.7379C23.8608 10.3213 17.6224 10.3213 17.6224 10.3213C17.6224 10.3213 11.3878 10.3213 9.82819 10.7379C8.96811 10.9673 8.29152 11.6439 8.06217 12.5078C7.64551 14.0674 7.64551 17.3204 7.64551 17.3204C7.64551 17.3204 7.64551 20.5772 8.06217 22.133C8.29152 22.9931 8.96811 23.6697 9.82819 23.9029C11.3878 24.3195 17.6224 24.3195 17.6224 24.3195C17.6224 24.3195 23.8608 24.3195 25.4166 23.9029C26.2729 23.6735 26.9495 22.9969 27.1826 22.133C27.5993 20.5734 27.5993 17.3204 27.5993 17.3204C27.5993 17.3204 27.5993 14.0636 27.1826 12.5078H27.1788ZM15.627 20.3211V14.3197L20.8104 17.3204L15.627 20.3211Z" fill="#737C98"/>
</svg>
